<?xml version="1.0" encoding="UTF-8" standalone="no"?>
<svg
   xmlns:dc="http://purl.org/dc/elements/1.1/"
   xmlns:cc="http://creativecommons.org/ns#"
   xmlns:rdf="http://www.w3.org/1999/02/22-rdf-syntax-ns#"
   xmlns:svg="http://www.w3.org/2000/svg"
   xmlns="http://www.w3.org/2000/svg"
   xmlns:sodipodi="http://sodipodi.sourceforge.net/DTD/sodipodi-0.dtd"
   xmlns:inkscape="http://www.inkscape.org/namespaces/inkscape"
   version="1.1"
   x="0px"
   y="0px"
   viewBox="0 0 1000 1000"
   enable-background="new 0 0 1000 1000"
   xml:space="preserve"
   id="svg10"
   sodipodi:docname="cold.svg"
   inkscape:version="1.0.2-2 (e86c870879, 2021-01-15)"
   inkscape:export-filename="C:\Users\user\Desktop\cold.png"
   inkscape:export-xdpi="96"
   inkscape:export-ydpi="96"><defs
   id="defs14" /><sodipodi:namedview
   pagecolor="#ffffff"
   bordercolor="#666666"
   borderopacity="1"
   objecttolerance="10"
   gridtolerance="10"
   guidetolerance="10"
   inkscape:pageopacity="0"
   inkscape:pageshadow="2"
   inkscape:window-width="1920"
   inkscape:window-height="1001"
   id="namedview12"
   showgrid="false"
   inkscape:zoom="0.58689863"
   inkscape:cx="481.35956"
   inkscape:cy="663.23189"
   inkscape:window-x="-9"
   inkscape:window-y="-9"
   inkscape:window-maximized="1"
   inkscape:current-layer="svg10"
   inkscape:document-rotation="0" />
<metadata
   id="metadata2"> Svg Vector Icons : http://www.onlinewebfonts.com/icon <rdf:RDF><cc:Work
     rdf:about=""><dc:format>image/svg+xml</dc:format><dc:type
       rdf:resource="http://purl.org/dc/dcmitype/StillImage" /></cc:Work></rdf:RDF></metadata>
<g
   id="g8"><g
     transform="translate(0.000000,511.000000) scale(0.100000,-0.100000)"
     id="g6"><path
       d="M4812.6,4962.5c-54.1-29.3-130.7-90.2-166.8-137.5l-69.9-87.9l-6.8-608.6l-6.8-608.6L4328,3747.5c-130.7,126.2-270.5,243.5-315.6,261.5c-164.5,69.9-378.7,24.8-500.4-106c-108.2-115-148.8-320.1-94.7-462.1c13.5-33.8,277.3-317.8,586.1-628.9l561.3-563.5v-680.7c0-374.2-4.5-680.8-9-680.8c-13.5,0-1147.4,653.7-1169.9,674c-9,9-92.4,299.8-187.1,646.9c-92.4,344.9-182.6,683-200.6,746.1c-103.7,358.4-491.4,473.4-746.1,220.9c-65.4-67.6-101.4-126.2-119.5-205.1c-24.8-101.4-20.3-135.2,54.1-423.8c45.1-171.3,76.6-315.6,72.1-322.3c-6.8-4.5-225.4,112.7-486.9,263.7c-313.3,182.6-504.9,279.5-565.8,286.3c-184.8,24.8-376.5-76.7-464.4-248c-78.9-148.8-20.3-426,110.5-527.5c29.3-22.5,259.2-157.8,507.2-299.8c250.2-142,455.3-263.7,455.3-270.5c0-6.8-130.7-47.3-290.8-87.9c-326.9-83.4-396.7-119.5-489.2-238.9c-49.6-67.6-65.4-115-72.1-225.4c-15.8-238.9,112.7-412.5,347.1-462.1c105.9-24.8,148.8-15.8,863.3,178.1l755.1,200.6l572.5-329.1c313.3-182.6,572.6-340.4,572.6-353.9c0-11.3-257-171.3-572.6-353.9l-572.5-331.3l-752.9,202.9c-719.1,193.8-759.6,202.9-865.6,178.1c-234.4-49.6-362.9-223.2-347.1-462.1c6.8-110.5,22.5-157.8,72.1-225.4c92.4-119.5,162.3-155.5,489.2-239c160-40.6,290.8-81.2,290.8-87.9c0-6.8-205.1-128.5-455.3-270.5c-532-304.3-545.5-315.6-606.4-432.8c-144.3-279.5,38.3-617.6,347.1-644.7c151-11.3,178.1,0,710.1,308.8c241.2,139.8,441.8,250.2,446.3,243.4c6.8-6.8-24.8-151-69.9-322.3c-74.4-288.5-78.9-322.4-54.1-423.8c36.1-148.8,173.6-288.5,317.8-324.6c173.6-45.1,322.3,2.2,439.6,139.8c83.4,94.7,76.6,69.9,297.5,901.7c99.2,369.7,189.3,680.8,198.4,689.8c22.5,22.5,1156.4,676.2,1169.9,676.2c4.5,0,9-306.6,9-680.8v-680.7l-561.3-565.8c-311.1-308.8-574.8-592.9-586.1-626.7c-54.1-144.3-11.3-347.1,94.7-462.1c121.7-130.7,335.9-175.8,500.4-105.9c45.1,18,184.8,135.2,315.6,261.5l234.4,227.7l6.8-608.6l6.8-608.6l69.9-87.9c214.1-270.5,599.6-236.7,755.1,65.4c38.3,76.6,42.8,137.5,42.8,665v579.3l232.2-229.9c250.2-245.7,338.1-297.5,500.4-297.5c315.6,0,529.7,335.9,396.7,619.9c-27,56.4-241.2,288.5-586.1,631.2l-543.3,541v680.7c0,376.5,4.5,683,9,683c11.3,0,1147.3-653.7,1167.6-674c9-6.8,103.7-338.1,209.6-732.6c105.9-394.5,214.1-759.6,243.4-807c51.8-96.9,182.6-184.8,304.3-207.4c205.1-36.1,450.8,128.5,495.9,331.3c24.8,117.2,15.8,173.6-74.4,507.2c-33.8,128.5-56.4,236.7-49.6,243.5c6.8,6.8,207.4-101.4,446.3-241.2c241.2-139.8,468.9-266,509.5-284c205.1-85.6,489.1,38.3,568,248c38.3,101.4,29.3,279.5-20.3,376.5c-54.1,105.9-115,146.5-646.9,453.1c-227.7,128.5-412.5,238.9-412.5,245.7c0,6.7,115,40.5,254.7,76.6c137.5,36.1,288.5,78.9,331.4,96.9c166.8,67.6,270.5,225.4,270.5,412.5c0,216.4-135.2,380.9-351.6,428.3c-106,24.8-146.5,15.8-863.4-178.1l-755.1-202.9l-586.1,340.4C6169.6-50.7,5903.6,104.8,5901.3,107c-2.2,2.3,261.5,157.8,586.1,344.9l592.8,342.6l752.9-202.9c719.1-193.9,759.6-202.9,865.6-178.1c216.4,47.3,351.6,211.9,351.6,428.3c0,187.1-103.7,344.9-270.5,412.5c-42.8,18-193.8,60.9-331.4,96.9c-139.8,36.1-254.7,69.9-254.7,76.6c0,6.8,184.8,117.2,412.5,245.7c532,306.6,592.8,347.1,646.9,453.1c49.6,96.9,58.6,275,20.3,376.5c-60.9,164.5-259.2,288.5-439.6,272.7c-99.2-9-187.1-49.6-595.1-286.3c-263.7-151-484.6-268.2-489.2-263.7c-6.8,6.8,15.8,115,49.6,243.5c90.2,333.6,99.2,390,74.4,507.2c-45.1,205.1-290.8,369.7-495.9,329.1c-151-27-290.8-133-338.1-254.7c-18-49.6-401.2-1453.9-401.2-1476.5c0-6.8-1131.6-665-1176.7-683c-9-4.5-18,299.8-18,676.2v683l543.3,541c344.9,342.6,559,574.8,586.1,631.2c133,284-81.2,619.9-396.7,619.9c-162.3,0-250.2-51.8-500.4-297.5l-232.2-229.9v579.3c0,527.5-4.5,588.3-42.8,665C5283.7,4985,5031.2,5072.9,4812.6,4962.5z"
       id="path4" /></g></g>
<path
   style="fill:#b3b3b3;stroke-width:1.20482"
   d="m 488.89884,987.40873 c -8.41748,-2.63066 -15.41211,-7.44372 -22.94155,-15.78626 l -7.1468,-7.91857 -0.79079,-23.61196 c -0.43493,-12.98658 -0.79078,-40.60308 -0.79078,-61.37002 0,-20.76693 -0.34731,-37.75806 -0.77178,-37.75806 -0.42447,0 -8.69254,7.48748 -18.37349,16.63883 -22.11322,20.90354 -32.61622,29.75517 -38.37926,32.34492 -3.09578,1.39117 -7.94637,2.06064 -15.36704,2.12094 -9.73749,0.0792 -11.65295,-0.29488 -18.78145,-3.66724 -4.36594,-2.06545 -9.9926,-5.8099 -12.5037,-8.32098 -9.31809,-9.31811 -14.36463,-26.16425 -12.18737,-40.68333 1.13639,-7.57799 7.33939,-14.54073 66.66141,-74.82614 l 49.90498,-50.71544 -0.40235,-67.67141 c -0.2213,-37.21928 -0.75234,-68.02106 -1.18007,-68.4484 -1.36621,-1.36492 -116.2399,65.12925 -118.02438,68.31794 -1.5697,2.8049 -12.76642,42.12116 -25.66944,90.13588 -16.14755,60.08818 -17.15986,62.65374 -28.71311,72.76915 -8.90304,7.79502 -17.15503,10.68985 -28.64644,10.04932 -16.56414,-0.9233 -30.46839,-10.30841 -38.00071,-25.64978 -5.41138,-11.02159 -4.97989,-20.55064 2.21446,-48.90383 5.80475,-22.87666 7.85372,-33.61092 6.41574,-33.61092 -1.65515,0 -14.15326,6.82491 -45.84232,25.03334 -17.92706,10.30083 -37.74108,21.21664 -44.03117,24.25736 -10.84459,5.24244 -11.96849,5.52858 -21.71457,5.52858 -9.18507,0 -11.13319,-0.42111 -18.31934,-3.95994 -18.216085,-8.97053 -28.131937,-29.58273 -23.328798,-48.49387 2.63289,-10.36632 7.174291,-17.43986 15.427858,-24.02994 3.749979,-2.99418 23.25105,-14.90057 43.33572,-26.45866 45.17875,-25.99891 52.00715,-30.24271 50.72482,-31.52505 -0.5588,-0.55879 -11.84547,-3.98385 -25.0815,-7.61124 -35.83717,-9.82131 -40.94456,-12.01065 -49.11409,-21.05335 -8.40091,-9.2988 -9.891216,-13.58317 -9.890779,-28.43421 3.35e-4,-11.37944 0.406014,-14.15064 2.869629,-19.60255 5.62617,-12.4505 20.48293,-22.44319 35.6842,-24.00125 7.939,-0.81372 18.77551,1.71118 93.53707,21.79407 33.55383,9.01342 61.7576,16.38804 62.67505,16.38804 0.91746,0 16.29565,-8.44454 34.17377,-18.76566 55.07187,-31.79322 81.30086,-47.90199 81.30086,-49.93167 0,-1.95084 -36.04427,-23.81224 -93.26337,-56.56566 l -21.57662,-12.3509 -46.49567,12.37102 c -25.57262,6.80406 -57.61013,15.32081 -71.19447,18.9261 -20.33457,5.39682 -26.61479,6.58725 -35.54216,6.73713 -9.8517,0.1654 -11.55959,-0.16059 -18.6747,-3.56453 -9.7402,-4.6598 -16.2701,-10.97104 -20.34855,-19.66718 -2.800888,-5.97208 -3.142621,-8.15842 -3.1198,-19.95974 0.02917,-15.08481 1.592245,-19.42116 10.47361,-29.0563 6.84998,-7.43135 16.1741,-11.47827 43.90045,-19.05401 13.15246,-3.59367 25.54007,-7.16747 27.52802,-7.94176 l 3.61446,-1.40782 -2.88579,-1.99295 c -1.58719,-1.09611 -22.47323,-13.38953 -46.41342,-27.31869 -23.9402,-13.92915 -45.216687,-26.52845 -47.281085,-27.99843 -8.792501,-6.26081 -14.865488,-21.13822 -14.865488,-36.41698 0,-7.47456 0.582847,-10.35294 3.132383,-15.46919 4.31009,-8.64921 12.831777,-16.7827 22.154682,-21.14541 6.484938,-3.03467 9.376928,-3.67018 16.896628,-3.71302 8.50113,-0.0484 9.8677,0.33461 21.69744,6.08194 6.94369,3.3735 24.5526,12.91008 39.13092,21.19242 29.27909,16.63423 49.18932,27.49322 50.40951,27.49322 1.78751,0 0.48929,-7.33012 -5.39697,-30.47314 -7.73969,-30.43008 -8.37742,-40.92029 -3.13645,-51.59229 4.24547,-8.6449 13.79912,-18.19855 22.44403,-22.44402 5.77257,-2.83489 8.26554,-3.32188 17.00518,-3.32188 12.1072,0 20.48066,3.24403 29.25867,11.33531 8.87911,8.18449 11.81954,15.49306 23.06909,57.33939 5.70049,21.20482 14.52972,53.37678 19.62051,71.49327 l 9.256,32.93903 4.87979,3.30288 c 4.91568,3.32718 60.1715,35.42998 94.44155,54.86911 10.16258,5.76457 18.83728,10.12154 19.27711,9.68217 0.43983,-0.43938 0.9787,-31.12752 1.19748,-68.19589 l 0.3978,-67.39704 -38.83349,-39.43111 c -40.99977,-41.63072 -68.19484,-70.25376 -74.0808,-77.97065 -3.38026,-4.43175 -3.54395,-5.20722 -3.54395,-16.78835 0,-10.86036 0.36945,-12.94207 3.50021,-19.72207 7.18769,-15.56572 21.90236,-24.71899 39.87328,-24.80321 15.6636,-0.0734 20.43347,2.99758 53.95128,34.73538 9.13103,8.64612 17.12802,15.90094 17.77108,16.12182 0.73909,0.25386 1.17037,-13.26439 1.17237,-36.74699 10e-4,-20.43172 0.36072,-48.184378 0.79772,-61.672562 l 0.79456,-24.52397 8.61981,-8.875231 c 11.89687,-12.249392 19.09836,-15.570804 33.76065,-15.570804 10.06387,0 11.39084,0.29683 18.45895,4.129073 8.08656,4.384428 15.78381,12.123325 19.72594,19.832658 3.64971,7.137449 4.51757,21.607399 4.55354,75.921566 l 0.0326,49.28088 17.16868,-16.78549 c 32.22065,-31.50155 39.3132,-36.02734 56.3253,-35.94143 11.62916,0.0587 18.52077,2.48542 27.15795,9.56294 13.8024,11.31003 19.66637,32.56297 13.23293,47.96039 -3.14823,7.53477 -13.14524,18.38881 -64.08454,69.57838 l -49.80032,50.04498 v 57.90246 c 0,31.84634 0.35258,62.86953 0.7835,68.94042 l 0.7835,11.03798 9.15626,-5.00759 c 11.10037,-6.07082 71.70443,-41.14324 93.7538,-54.25664 15.32406,-9.11365 15.97191,-9.66155 17.22785,-14.57011 12.95996,-50.65132 38.31829,-141.51645 40.9137,-146.60389 3.09295,-6.06267 12.28909,-14.10656 20.51392,-17.94355 5.43043,-2.53338 8.475,-3.10148 16.86747,-3.14744 8.66252,-0.0475 11.30281,0.44162 17.13021,3.17292 9.52497,4.46435 18.61538,13.26301 22.80409,22.07222 5.20919,10.95536 4.82913,20.41544 -1.87475,46.66371 -6.25198,24.47886 -8.39318,34.60907 -7.50337,35.4989 0.82912,0.82912 22.11622,-10.45039 55.17491,-29.23581 32.15437,-18.27155 38.41395,-21.45024 47.36444,-24.05223 17.64185,-5.12861 39.71445,5.42008 48.37323,23.118 2.78162,5.68541 3.26205,8.20361 3.26181,17.0965 -5.4e-4,19.30188 -4.26347,27.31472 -20.37941,38.30626 -5.90518,4.02752 -26.45959,16.42745 -45.67646,27.55541 -43.09403,24.95457 -44.50758,25.84288 -43.2016,27.14886 0.57817,0.57817 12.97481,4.36359 27.5481,8.41206 31.17809,8.66128 37.1348,11.14719 44.60088,18.61325 18.18412,18.18413 16.2743,50.15621 -3.88446,65.02905 -6.49632,4.79288 -18.70864,9.09905 -25.80499,9.09905 -7.16698,0 -21.49478,-3.47586 -89.65093,-21.74883 -34.47518,-9.24297 -63.2829,-16.80539 -64.01715,-16.80539 -0.73427,0 -24.84657,13.64392 -53.58292,30.3198 -28.73634,16.67589 -55.09428,31.97086 -58.57319,33.98882 -3.47892,2.01796 -6.3253,4.05249 -6.3253,4.52119 0,0.4687 11.52108,7.49279 25.60241,15.60912 14.08132,8.11631 40.51204,23.4143 58.73494,33.99552 l 33.13253,19.23856 5.42168,-1.1686 c 2.98193,-0.64272 32.99953,-8.5732 66.70577,-17.62328 69.98317,-18.79037 78.23722,-20.66378 86.65162,-19.66723 7.38589,0.87475 19.35268,6.34251 25.28938,11.555 2.43994,2.14231 6.20945,7.49694 8.37668,11.89921 3.61614,7.34545 3.94041,8.95017 3.94041,19.50057 0,10.54259 -0.32586,12.15835 -3.92733,19.47398 -4.50456,9.15006 -11.14753,15.70838 -20.02447,19.76927 -3.39278,1.55208 -18.09639,6.13953 -32.67471,10.19432 -14.57831,4.0548 -26.97495,7.82712 -27.54808,8.38296 -1.30616,1.26669 1.8696,3.26992 42.60832,26.87683 53.65032,31.08879 59.20682,35.22976 63.98854,47.6872 3.63778,9.47717 3.72563,26.12768 0.1799,34.09215 -7.17177,16.10931 -26.42653,27.42947 -44.22538,26.00076 -8.87435,-0.71235 -10.09096,-1.30711 -56.08764,-27.41903 -32.81643,-18.62961 -49.58348,-27.70905 -51.17045,-27.70905 -1.44653,0 -0.31294,5.85939 5.97802,30.89967 8.07698,32.1493 8.58252,40.3085 3.19902,51.63045 -4.18871,8.80921 -13.27912,17.60787 -22.80409,22.07222 -5.77878,2.70852 -8.53995,3.22899 -17.13021,3.22899 -8.70231,0 -11.24206,-0.49166 -16.90412,-3.27243 -9.51789,-4.67446 -16.23927,-10.89193 -19.61562,-18.14503 -3.71451,-7.97953 -12.0985,-36.00572 -26.60433,-88.93366 -6.28219,-22.92203 -12.91414,-46.66057 -14.73767,-52.75231 l -3.31552,-11.0759 -30.79692,-17.9231 c -56.39858,-32.8227 -85.96538,-49.39022 -87.00089,-48.75025 -0.56371,0.34839 -1.02493,31.33849 -1.02493,68.86688 v 68.23344 l 49.7867,50.06895 c 57.89186,58.22005 62.38739,63.33669 65.38803,74.42193 5.09445,18.82042 -4.9028,39.71629 -23.34534,48.79551 -7.3003,3.59393 -9.04835,3.95892 -18.91248,3.94885 -9.42565,-0.01 -11.67801,-0.43676 -16.96412,-3.21705 -9.13247,-4.80335 -17.30177,-11.66094 -37.57929,-31.54535 l -18.3735,-18.0173 -0.0326,49.28696 c -0.0364,54.91114 -0.88732,68.75214 -4.68456,76.19535 -9.52242,18.66548 -31.41685,28.46868 -50.35985,22.54854 z"
   id="path16" /><path
   style="fill:#b3b3b3;stroke-width:1.20482;stroke:none;stroke-opacity:1"
   d="m 482.74807,983.67965 c -6.09493,-3.04917 -10.57466,-6.49313 -15.64865,-12.03051 -6.86517,-7.49212 -7.13553,-8.03801 -7.87884,-15.90856 -0.42334,-4.48262 -0.77475,-18.72251 -0.78089,-31.64419 -0.0166,-34.96966 -1.4684,-83.13253 -2.50585,-83.13253 -0.50008,0 -10.03677,8.42909 -21.19262,18.73132 -32.51573,30.02765 -35.24021,31.72609 -51.04027,31.81821 -7.90512,0.0461 -10.14903,-0.47015 -17.46988,-4.01912 -10.57526,-5.12664 -15.63041,-10.1132 -20.27871,-20.00355 -2.98076,-6.34226 -3.76526,-9.78636 -4.17334,-18.3216 -0.45792,-9.57806 -0.23068,-10.97502 2.56,-15.73696 3.6231,-6.18235 26.35761,-30.40783 76.92237,-81.96709 l 36.92404,-37.65025 -0.77947,-67.65186 c -0.42869,-37.20851 -1.16426,-68.03601 -1.6346,-68.50551 -0.98694,-0.98526 -36.68894,18.6456 -75.77948,41.66757 -34.67396,20.42088 -42.86848,25.76081 -43.68913,28.46987 -4.02692,13.29333 -13.72238,47.73468 -23.68393,84.13282 -13.36202,48.82302 -15.59002,56.05564 -19.86916,64.5001 -3.54565,6.99701 -12.34283,14.98731 -20.83249,18.92174 -5.52315,2.55964 -7.743,2.90321 -16.26506,2.51739 -16.76127,-0.75883 -29.94436,-9.15771 -37.8073,-24.08682 -3.0522,-5.79508 -3.37801,-7.56207 -3.29624,-17.87651 0.0741,-9.34321 1.12536,-15.66803 5.72289,-34.43055 5.63702,-23.00463 6.72723,-30.62969 4.37934,-30.62969 -1.94098,0 -8.93125,3.74561 -42.91683,22.99616 -17.33548,9.8194 -37.12464,20.71219 -43.97591,24.20622 -11.5193,5.87464 -13.20347,6.38691 -22.37683,6.80645 -9.03166,0.41305 -10.6177,0.12717 -17.711699,-3.1925 -24.568991,-11.49723 -33.102278,-39.49795 -18.865245,-61.90354 5.353866,-8.42568 8.981361,-10.81035 79.239644,-52.09123 20.45711,-12.01976 25.61338,-15.61404 24.2933,-16.93413 -0.29495,-0.29494 -12.94936,-4.12337 -28.12091,-8.50761 -15.17155,-4.38423 -30.61469,-9.5009 -34.31809,-11.37037 -7.10367,-3.58592 -15.23619,-11.46539 -18.83111,-18.24516 -3.231043,-6.0935 -3.823744,-26.47691 -1.01572,-34.93109 4.26942,-12.854 20.90869,-25.03463 35.68521,-26.12303 9.20916,-0.67832 19.70767,1.6984 89.56459,20.27617 32.46988,8.63506 61.24526,16.01836 63.94527,16.40734 4.52061,0.65126 6.4276,-0.14717 24.09639,-10.08885 40.30034,-22.67577 86.50849,-50.48068 91.84044,-55.26332 l 3.25043,-2.91557 -3.89842,-3.37125 c -7.80532,-6.74986 -109.04049,-65.85458 -112.36715,-65.60399 -1.09235,0.0823 -29.86741,7.57071 -63.94459,16.64095 -89.75158,23.88897 -91.66937,24.19425 -106.57081,16.9642 -9.29431,-4.50952 -15.77746,-10.59557 -20.0438,-18.81609 -2.490967,-4.79968 -2.813779,-7.08036 -2.813779,-19.87952 0,-13.58237 0.199472,-14.79715 3.294209,-20.06156 4.62439,-7.86648 12.88853,-14.70909 22.32959,-18.4886 4.43608,-1.77588 19.13578,-6.40659 32.66599,-10.29047 13.53021,-3.88387 25.09874,-7.55994 25.70785,-8.16905 0.6734,-0.6734 -11.55681,-8.55523 -31.20413,-20.1097 -63.269771,-37.20856 -67.021006,-39.58177 -70.554444,-44.63624 -5.547797,-7.93594 -8.144083,-17.23306 -8.131374,-29.11789 0.01009,-9.43403 0.384849,-11.22349 3.480862,-16.62098 4.309191,-7.51251 12.365144,-15.04657 20.796732,-19.44947 5.548824,-2.89754 7.842914,-3.36373 16.674954,-3.38863 10.10502,-0.0284 10.41962,0.0624 23.7,6.84504 7.40246,3.78064 27.46271,14.68677 44.57831,24.23586 34.32184,19.14872 40.66216,22.50471 42.51707,22.50471 2.34789,0 1.25768,-7.62506 -4.37934,-30.62969 -4.59753,-18.76252 -5.64882,-25.08734 -5.72289,-34.43055 -0.078,-9.82529 0.3119,-12.20087 2.75315,-16.77908 4.35465,-8.16647 14.08829,-17.70392 22.21009,-21.76243 16.56153,-8.27589 38.81906,-2.34463 50.21002,13.38014 6.01669,8.3058 7.83075,14.09012 32.45144,103.47462 6.66215,24.18675 12.69044,46.00281 13.39618,48.48013 1.1871,4.16705 2.69971,5.34725 20.20625,15.76583 24.7205,14.71177 84.60087,48.99126 92.83807,53.14664 3.54481,1.78823 6.79782,2.89928 7.22892,2.46899 0.43111,-0.43028 1.1345,-31.21856 1.56312,-68.41839 l 0.77929,-67.63606 -38.6494,-39.19272 c -42.80807,-43.40986 -72.31023,-74.63892 -75.72411,-80.15659 -3.25573,-5.2621 -3.13117,-22.24078 0.22907,-31.22183 3.4533,-9.22977 11.56401,-17.82752 21.37354,-22.657 7.27452,-3.58143 9.04866,-3.9525 18.89738,-3.9525 15.83153,0 19.19634,2.15914 53.88069,34.57433 9.07804,8.48412 17.07503,15.42567 17.77108,15.42567 0.79198,0 1.29673,-4.39586 1.34884,-11.74698 0.0458,-6.46085 0.493,-34.21352 0.99379,-61.672612 l 0.91049,-49.925619 9.20049,-8.679236 C 480.5633,15.553497 486.17617,12.904 499.67039,12.258833 c 9.59898,-0.458933 11.1523,-0.208805 17.25988,2.779355 7.96886,3.898808 18.44072,13.817384 21.51127,20.374735 3.491,7.455242 4.20681,17.765953 4.48389,64.587077 0.14315,24.18675 0.48316,47.92231 0.75559,52.74569 l 0.49535,8.76979 19.1521,-18.59505 c 31.45218,-30.53734 39.50461,-35.35631 57.18406,-34.22171 10.76355,0.69076 18.37633,4.18556 26.24871,12.05001 7.44909,7.44157 11.85268,17.00603 12.58336,27.33064 0.75298,10.63969 -1.05588,16.53298 -7.86085,25.61085 -3.13534,4.18255 -28.62445,30.73166 -56.64247,58.99801 l -50.94186,51.39336 0.33945,68.70293 c 0.1867,37.78661 0.71937,69.08252 1.18372,69.54646 0.46435,0.46394 5.07278,-1.46016 10.24096,-4.27575 17.36317,-9.45939 99.70629,-57.60141 104.65541,-61.18694 4.49768,-3.25847 5.12539,-4.42078 7.69265,-14.24428 18.4269,-70.50921 37.94259,-138.29582 41.08628,-142.71073 3.21003,-4.50806 11.19074,-10.93836 18.01054,-14.51164 4.58047,-2.39998 7.19761,-2.84312 16.86747,-2.85612 9.84575,-0.0132 12.27316,0.40566 17.36437,2.99665 9.29287,4.72928 17.02577,12.44328 21.41848,21.36614 5.51252,11.19752 5.22225,18.56971 -1.88667,47.91741 -6.64066,27.41463 -7.75535,34.33091 -5.53306,34.33091 1.99302,0 22.85887,-11.03908 52.96174,-28.01939 30.00918,-16.92747 42.54965,-23.24042 49.78319,-25.06116 16.76703,-4.22038 36.88732,5.38656 46.09698,22.01019 3.24324,5.85412 3.52991,7.35003 3.52991,18.41975 0,15.88626 -2.04641,21.22497 -11.48567,29.96406 -6.64541,6.15249 -17.62184,12.99432 -78.57457,48.97715 -10.43674,6.16123 -18.9759,11.85494 -18.9759,12.6527 0,0.82309 6.64442,3.3682 15.36144,5.88412 45.44162,13.11541 53.28916,16.53247 60.50631,26.34626 6.43897,8.75565 8.77316,16.90826 8.18433,28.58535 -0.61908,12.27709 -3.73974,19.74371 -11.495,27.50338 -10.6063,10.61232 -26.43098,14.42466 -43.72417,10.53362 -8.33861,-1.87621 -31.843,-8.00324 -106.3192,-27.71482 -16.44277,-4.3519 -31.0393,-7.91254 -32.43676,-7.91254 -3.82294,0 -117.83192,65.61417 -118.69079,68.30865 -0.59358,1.86212 0.0393,2.25119 63.4401,39.00088 l 53.80952,31.19018 20.44115,-5.29368 c 11.24262,-2.91153 36.92109,-9.70534 57.06325,-15.09738 76.55229,-20.49295 78.98281,-20.84787 94.10078,-13.74103 10.90909,5.12825 14.903,8.90495 19.82812,18.74968 3.91049,7.81658 4.26827,9.41357 4.26827,19.05138 0,9.63124 -0.35927,11.23774 -4.25415,19.02314 -8.16066,16.31223 -11.31803,17.9744 -62.31212,32.80389 -9.99079,2.9054 -17.77108,5.79326 -17.77108,6.59618 0,1.35514 8.82736,6.78729 57.83132,35.58808 46.72088,27.45896 51.13514,32.28784 51.18134,55.98871 0.0217,11.12577 -0.25013,12.54218 -3.55037,18.50049 -7.56005,13.64905 -21.28213,22.00966 -37.39,22.78107 -9.20488,0.44082 -10.07223,0.24907 -19.27711,-4.26166 -5.30121,-2.5978 -24.54819,-13.13799 -42.77108,-23.42266 -34.39913,-19.41426 -47.25078,-26.24785 -49.36323,-26.24785 -2.22639,0 -1.3219,6.28481 4.13133,28.70614 6.68861,27.50063 8.16771,37.59271 6.55732,44.74092 -2.75849,12.24428 -12.28541,23.87977 -24.68395,30.14715 -4.49566,2.27253 -8.29125,3.09811 -15.78756,3.43399 -8.61385,0.38594 -10.73389,0.0463 -16.66975,-2.67133 -9.05033,-4.14337 -15.63482,-9.51428 -19.14367,-15.61531 -4.11153,-7.14892 -10.45187,-27.61813 -27.67427,-89.34397 C 673.74501,680.42169 666.12758,653.31325 665.13739,650 c -1.77959,-5.95463 -1.96411,-6.11972 -15.99899,-14.31606 -55.83469,-32.60733 -102.17581,-58.57551 -104.53001,-58.57551 -0.34787,0 -0.63249,31.2685 -0.63249,69.48555 v 69.48554 l 48.5465,48.88795 c 65.8513,66.31448 66.44252,67.06525 66.48732,84.43012 0.0222,8.61533 -0.48425,11.33043 -3.19066,17.10422 -4.18584,8.92997 -12.46033,17.08986 -21.81983,21.51766 -6.37347,3.01517 -8.93353,3.54108 -17.13176,3.51939 -15.76692,-0.0417 -23.5644,-5.05196 -53.58688,-34.43194 l -19.10147,-18.69269 -0.49671,8.80493 c -0.27319,4.84272 -0.61383,28.59409 -0.75698,52.78084 -0.27482,46.43802 -1.00385,57.19147 -4.3563,64.25622 -3.6792,7.75336 -11.08721,14.90832 -20.10819,19.42133 -7.57676,3.79051 -9.59796,4.27426 -17.85853,4.27426 -8.25971,0 -10.28208,-0.48392 -17.85434,-4.27216 z"
   id="path841"
   inkscape:export-xdpi="96"
   inkscape:export-ydpi="96" /></svg>
