<?xml version="1.0" encoding="UTF-8" standalone="no"?>
<svg
   xmlns:dc="http://purl.org/dc/elements/1.1/"
   xmlns:cc="http://creativecommons.org/ns#"
   xmlns:rdf="http://www.w3.org/1999/02/22-rdf-syntax-ns#"
   xmlns:svg="http://www.w3.org/2000/svg"
   xmlns="http://www.w3.org/2000/svg"
   xmlns:sodipodi="http://sodipodi.sourceforge.net/DTD/sodipodi-0.dtd"
   xmlns:inkscape="http://www.inkscape.org/namespaces/inkscape"
   version="1.1"
   x="0px"
   y="0px"
   viewBox="0 0 80.000008 80"
   enable-background="new 0 0 1000 1000"
   xml:space="preserve"
   id="svg10"
   sodipodi:docname="cold.svg"
   inkscape:version="1.0.2-2 (e86c870879, 2021-01-15)"
   inkscape:export-filename="..\icon_cold.png"
   inkscape:export-xdpi="96"
   inkscape:export-ydpi="96"
   width="80.000008"
   height="80"><defs
   id="defs14" /><sodipodi:namedview
   pagecolor="#ffffff"
   bordercolor="#666666"
   borderopacity="1"
   objecttolerance="10"
   gridtolerance="10"
   guidetolerance="10"
   inkscape:pageopacity="0"
   inkscape:pageshadow="2"
   inkscape:window-width="1920"
   inkscape:window-height="1001"
   id="namedview12"
   showgrid="false"
   inkscape:zoom="2.3475945"
   inkscape:cx="-17.769397"
   inkscape:cy="21.487478"
   inkscape:window-x="-9"
   inkscape:window-y="-9"
   inkscape:window-maximized="1"
   inkscape:current-layer="svg10"
   inkscape:document-rotation="0"
   fit-margin-top="0"
   fit-margin-left="0"
   fit-margin-right="0"
   fit-margin-bottom="0" />
<metadata
   id="metadata2"> Svg Vector Icons : http://www.onlinewebfonts.com/icon <rdf:RDF><cc:Work
     rdf:about=""><dc:format>image/svg+xml</dc:format><dc:type
       rdf:resource="http://purl.org/dc/dcmitype/StillImage" /><dc:title></dc:title></cc:Work></rdf:RDF></metadata>

<path
   style="fill:#b3b3b3;stroke:none;stroke-width:0.10547;stroke-opacity:1"
   d="m 38.405122,79.649778 c -0.569748,-0.249965 -0.988505,-0.532294 -1.462815,-0.986237 -0.641756,-0.614188 -0.667029,-0.658938 -0.736511,-1.30415 -0.03954,-0.367475 -0.07245,-1.534831 -0.07298,-2.594123 -0.0011,-2.866741 -0.137259,-6.815031 -0.234241,-6.815031 -0.04677,0 -0.938234,0.690999 -1.981069,1.535555 -3.039544,2.461603 -3.294232,2.600838 -4.771204,2.608389 -0.738963,0.0038 -0.948722,-0.03855 -1.633068,-0.329478 -0.988568,-0.420272 -1.46112,-0.82906 -1.895638,-1.639849 -0.278639,-0.519925 -0.351973,-0.802267 -0.390121,-1.501966 -0.0428,-0.78519 -0.02156,-0.899709 0.239306,-1.290084 0.338685,-0.506817 2.463889,-2.492769 7.190644,-6.71949 l 3.45163,-3.086487 -0.07288,-5.545957 c -0.04006,-3.050277 -0.108832,-5.577449 -0.152804,-5.615938 -0.09227,-0.08077 -3.429649,1.528528 -7.083799,3.415819 -3.241293,1.674062 -4.00731,2.111818 -4.084022,2.3339 -0.376436,1.08976 -1.282758,3.913189 -2.213954,6.897031 -1.249072,4.00241 -1.457343,4.595325 -1.857354,5.287583 -0.331444,0.573601 -1.153797,1.228629 -1.947404,1.551166 -0.516298,0.209833 -0.723808,0.237998 -1.520445,0.206369 -1.566828,-0.0622 -2.799173,-0.750731 -3.534194,-1.974586 -0.285318,-0.47507 -0.315772,-0.619922 -0.30813,-1.465479 0.0069,-0.765937 0.105207,-1.284432 0.534971,-2.822543 0.526945,-1.885873 0.628856,-2.510958 0.409378,-2.510958 -0.181441,0 -0.834887,0.307057 -4.01183,1.885176 -1.6205074,0.804975 -3.4703804,1.697943 -4.1108324,1.984375 -1.076816,0.481592 -1.234251,0.523585 -2.0917691,0.557978 C 3.219714,61.744633 3.0714527,61.721183 2.4083112,61.449049 0.11161342,60.506531 -0.68607088,58.21109 0.64479502,56.374327 1.1452695,55.683608 1.4843655,55.488118 8.0520506,52.103998 9.9643646,51.118644 10.44637,50.823992 10.322969,50.715774 10.295397,50.691594 9.1124736,50.377748 7.6942506,50.018337 6.2760276,49.658928 4.8324146,49.239475 4.4862236,49.08622 3.8221785,48.792253 3.0619576,48.14631 2.7259077,47.59052 2.4238723,47.090985 2.3684669,45.419997 2.6309607,44.726942 c 0.3991014,-1.053744 1.9545259,-2.052286 3.3358249,-2.14151 0.860863,-0.0556 1.842256,0.13923 8.3724224,1.662197 3.035259,0.707884 5.725156,1.313151 5.97755,1.345039 0.422582,0.05339 0.600847,-0.01207 2.252512,-0.827064 3.767241,-1.858911 8.08674,-4.138298 8.585162,-4.530369 l 0.303852,-0.239014 -0.364426,-0.276367 c -0.729628,-0.55334 -10.193009,-5.39862 -10.503982,-5.378077 -0.102101,0.0068 -2.791981,0.620631 -5.977488,1.36419 C 6.2224856,37.664335 6.0432126,37.68936 4.6502376,37.096657 3.7814124,36.726975 3.1753729,36.228054 2.7765588,35.554153 2.5437059,35.160685 2.5135295,34.973721 2.5135295,33.924472 c 0,-1.113455 0.018647,-1.213039 0.3079395,-1.644603 0.4322848,-0.644879 1.2048096,-1.205822 2.0873526,-1.515658 0.414681,-0.145583 1.788798,-0.5252 3.053589,-0.843591 1.264793,-0.318392 2.3462094,-0.619748 2.4031494,-0.669682 0.06296,-0.05521 -1.0803214,-0.70134 -2.9169374,-1.64855 -5.914405,-3.05028 -6.2650681,-3.24483 -6.59537038,-3.659186 -0.5186033,-0.650572 -0.7613026,-1.412731 -0.7601145,-2.387023 9.429e-4,-0.773382 0.035971,-0.920078 0.3253881,-1.362554 0.4028197,-0.615859 1.15588368,-1.233484 1.94406168,-1.594426 0.518699,-0.237534 0.7331493,-0.27575 1.5587614,-0.277792 0.9446077,-0.0023 0.9740167,0.0052 2.2154577,0.561141 0.691975,0.309929 2.56719,1.203991 4.1671414,1.986805 3.208378,1.569772 3.801065,1.844889 3.974461,1.844889 0.219479,0 0.117568,-0.625087 -0.409377,-2.510957 -0.429773,-1.538112 -0.528046,-2.056608 -0.534971,-2.822544 -0.0073,-0.805458 0.02914,-1.000202 0.257363,-1.375513 0.407069,-0.669471 1.316961,-1.451332 2.07618,-1.784039 1.548159,-0.67844 3.628773,-0.192209 4.693591,1.096875 0.562435,0.680893 0.732013,1.155078 3.033534,8.482632 0.622772,1.982779 1.186292,3.771215 1.252263,3.974299 0.110968,0.341606 0.252367,0.438356 1.888865,1.29245 2.310851,1.206039 7.908418,4.0162 8.678419,4.356849 0.331372,0.146596 0.63546,0.237677 0.675755,0.202402 0.04027,-0.03528 0.106027,-2.559231 0.146125,-5.608794 l 0.07288,-5.544662 -3.612915,-3.212937 c -4.001665,-3.558649 -6.759503,-6.118742 -7.07863,-6.571068 -0.304342,-0.431376 -0.292699,-1.823252 0.02141,-2.559502 0.322812,-0.7566362 1.080995,-1.461461 1.997981,-1.8573717 0.680016,-0.2935981 0.845862,-0.3240179 1.766512,-0.3240179 1.479915,0 1.794453,0.1770021 5.036722,2.8343326 0.848602,0.695508 1.596153,1.264562 1.661222,1.264562 0.07404,0 0.121213,-0.360363 0.126082,-0.962991 0.0044,-0.529648 0.04614,-2.8047534 0.09291,-5.0557922 l 0.08513,-4.0927976 0.860057,-0.7115049 c 1.135428,-0.93931954 1.660116,-1.15651908 2.921538,-1.20940875 0.897308,-0.0376196 1.042515,-0.0171189 1.613448,0.22784539 0.744917,0.31961686 1.723821,1.13272056 2.010848,1.67027806 0.326344,0.6111648 0.393258,1.456416 0.41915,5.2947131 0.01343,1.9827787 0.04518,3.9285699 0.07065,4.3239809 l 0.04635,0.718929 1.790322,-1.524384 c 2.940132,-2.5033864 3.692861,-2.8984355 5.345517,-2.8054231 1.00617,0.056625 1.717812,0.343123 2.453716,0.9878342 0.696331,0.6100447 1.10797,1.3941199 1.176279,2.2405089 0.07043,0.872219 -0.09866,1.355337 -0.734827,2.099524 -0.293091,0.342876 -2.675791,2.519314 -5.294897,4.836531 l -4.762001,4.213121 0.03175,5.63212 c 0.01748,3.097667 0.06723,5.663241 0.110656,5.701273 0.04338,0.03803 0.474205,-0.119701 0.957316,-0.350516 1.6231,-0.775462 9.32046,-4.722043 9.783106,-5.015978 0.420438,-0.267123 0.479117,-0.362406 0.719101,-1.167716 1.722532,-5.780195 3.546842,-11.3372 3.84071,-11.699125 0.30008,-0.369561 1.046105,-0.896704 1.68361,-1.189633 0.428185,-0.196746 0.672826,-0.233073 1.57676,-0.234138 0.920375,-0.0011 1.147287,0.03325 1.623206,0.245658 0.86869,0.387696 1.591562,1.020075 2.002188,1.75155 0.5153,0.917949 0.488173,1.522306 -0.176363,3.92817 -0.620766,2.247394 -0.724973,2.814375 -0.51723,2.814375 0.186304,0 2.136824,-0.904961 4.95082,-2.296971 2.805228,-1.387677 3.977501,-1.9052 4.653694,-2.054462 1.567363,-0.345976 3.448187,0.441581 4.309108,1.804351 0.303169,0.479908 0.329967,0.602541 0.329967,1.510012 0,1.302322 -0.191291,1.739978 -1.073671,2.456389 -0.621202,0.504371 -1.647276,1.065248 -7.345083,4.015045 -0.975622,0.505085 -1.773857,0.971843 -1.773857,1.037241 0,0.06747 0.621117,0.276118 1.435975,0.482369 4.247851,1.075173 4.981432,1.355296 5.656081,2.159811 0.601915,0.717769 0.820111,1.386103 0.765066,2.343367 -0.05786,1.00645 -0.349581,1.618547 -1.074543,2.254669 -0.991468,0.869975 -2.470744,1.182502 -4.087302,0.863524 -0.779483,-0.153809 -2.976657,-0.65609 -9.938625,-2.272004 -1.53706,-0.356758 -2.90153,-0.648653 -3.032161,-0.648653 -0.357371,0 -11.014832,5.378912 -11.095118,5.599801 -0.05551,0.152651 0.0032,0.184546 5.930322,3.19721 l 5.030073,2.556904 1.910819,-0.433964 c 1.050953,-0.238681 3.451353,-0.795624 5.334234,-1.237652 7.15604,-1.679969 7.383239,-1.709064 8.796455,-1.126461 1.019776,0.420404 1.393119,0.73001 1.853516,1.53706 0.365554,0.640787 0.399,0.771704 0.399,1.561792 0,0.789549 -0.03356,0.921246 -0.397679,1.559477 -0.762851,1.337242 -1.057997,1.473504 -5.82488,2.689193 -0.933938,0.23818 -1.661233,0.47492 -1.661233,0.540742 0,0.111091 0.825182,0.556406 5.406027,2.917436 4.367434,2.251027 4.780072,2.646888 4.784388,4.589836 0.0022,0.912066 -0.02332,1.028181 -0.331884,1.516631 -0.706708,1.11892 -1.989433,1.804305 -3.495188,1.867544 -0.860462,0.03614 -0.941546,0.02041 -1.802008,-0.349361 -0.495548,-0.212961 -2.294745,-1.077026 -3.998204,-1.920142 -3.215597,-1.591539 -4.416959,-2.151742 -4.614419,-2.151742 -0.208136,0 -0.123589,0.515214 0.386183,2.353269 0.625251,2.254444 0.763511,3.08177 0.612967,3.667766 -0.257843,1.00376 -1.148428,1.957614 -2.307435,2.4714 -0.420246,0.186298 -0.775061,0.253977 -1.475802,0.281511 -0.805217,0.03164 -1.0034,0.0038 -1.558275,-0.21899 -0.846024,-0.339663 -1.461536,-0.77996 -1.789543,-1.280109 -0.384337,-0.586054 -0.977037,-2.264078 -2.586958,-7.324232 -0.777746,-2.44452 -1.489824,-4.666813 -1.582396,-4.938427 -0.166358,-0.488148 -0.183588,-0.501681 -1.495569,-1.173599 -5.219383,-2.673081 -9.551314,-4.801899 -9.771383,-4.801899 -0.0325,0 -0.05914,2.563326 -0.05914,5.696281 v 5.696277 l 4.538086,4.007731 c 6.155729,5.436322 6.210998,5.497869 6.215197,6.921403 0.0022,0.706267 -0.04528,0.928846 -0.298269,1.402169 -0.391287,0.73206 -1.164782,1.400991 -2.039703,1.763971 -0.595788,0.247178 -0.835103,0.290291 -1.601458,0.288512 -1.473875,-0.0035 -2.20278,-0.414148 -5.009265,-2.822656 l -1.78558,-1.532388 -0.04645,0.72181 c -0.02557,0.396996 -0.05743,2.344082 -0.07075,4.326862 -0.02568,3.806891 -0.09387,4.688436 -0.407227,5.26759 -0.343934,0.635603 -1.036431,1.222152 -1.879684,1.592119 C 41.035369,79.960342 40.846445,80 40.074238,80 39.302139,80 39.113085,79.96033 38.405227,79.649778 Z"
   id="path841"
   inkscape:export-xdpi="96"
   inkscape:export-ydpi="96" /></svg>
