<?xml version="1.0" encoding="UTF-8" standalone="no"?>
<svg
   xmlns:dc="http://purl.org/dc/elements/1.1/"
   xmlns:cc="http://creativecommons.org/ns#"
   xmlns:rdf="http://www.w3.org/1999/02/22-rdf-syntax-ns#"
   xmlns:svg="http://www.w3.org/2000/svg"
   xmlns="http://www.w3.org/2000/svg"
   xmlns:sodipodi="http://sodipodi.sourceforge.net/DTD/sodipodi-0.dtd"
   xmlns:inkscape="http://www.inkscape.org/namespaces/inkscape"
   version="1.1"
   x="0px"
   y="0px"
   viewBox="0 0 1000 1000"
   enable-background="new 0 0 1000 1000"
   xml:space="preserve"
   id="svg14"
   sodipodi:docname="floor.svg"
   inkscape:version="1.0.2-2 (e86c870879, 2021-01-15)"
   inkscape:export-filename="C:\Users\user\Desktop\floor.png"
   inkscape:export-xdpi="96"
   inkscape:export-ydpi="96"><defs
   id="defs18" /><sodipodi:namedview
   pagecolor="#ffffff"
   bordercolor="#666666"
   borderopacity="1"
   objecttolerance="10"
   gridtolerance="10"
   guidetolerance="10"
   inkscape:pageopacity="0"
   inkscape:pageshadow="2"
   inkscape:window-width="1920"
   inkscape:window-height="1001"
   id="namedview16"
   showgrid="false"
   inkscape:zoom="0.29344931"
   inkscape:cx="1112.2843"
   inkscape:cy="343.36654"
   inkscape:window-x="-9"
   inkscape:window-y="-9"
   inkscape:window-maximized="1"
   inkscape:current-layer="svg14"
   inkscape:document-rotation="0" />
<metadata
   id="metadata2"> Svg Vector Icons : http://www.onlinewebfonts.com/icon <rdf:RDF><cc:Work
     rdf:about=""><dc:format>image/svg+xml</dc:format><dc:type
       rdf:resource="http://purl.org/dc/dcmitype/StillImage" /></cc:Work></rdf:RDF></metadata>
<g
   id="g867"><path
     d="m 963.7,569.1 c -9,-9.5 -17.5,-18.5 -25.5,-26.8 4.1,-10.9 9.4,-21 11.7,-31.8 4.8,-22 -2.9,-41.3 -18.6,-56.4 -13.2,-12.7 -30.8,-16 -48.7,-16.1 -49,-0.1 -97.9,0 -146.9,0 -205,0 -410,0 -615.1,0 -29.9,0 -57.4,-8.1 -79.5,-27.9 -10.5,-9.4 -19.2,-22.8 -24,-36 -14.3,-39.9 -7,-77.7 21.1,-109 11.1,-12.3 26.6,-23.1 45.1,-25 19.2,-2 38.4,-4.8 57.6,-4.8 245.6,-0.3 491.2,0.2 736.7,-1 18.6,-0.1 39.6,-7.6 54.9,-18.3 16.4,-11.4 21,-32.6 17.5,-53.5 -6,-36.2 -31,-52.8 -66.9,-52.9 -164.1,-0.6 -328.2,0 -492.3,0.2 -118.6,0.2 -237.3,0.2 -356.1,0.2 -7.9,0 -15.9,0 -24.4,0 0,-13.2 0,-25.4 0,-39 5.2,0 9.8,0 14.4,0 284.3,0 568.6,0.1 853,-0.1 30.2,0 58.6,6.7 80.9,27.2 15.2,13.9 24.8,32.3 29.1,53.7 7.2,35.6 -2.6,67 -26,92 -21,22.5 -50.8,30.4 -81.8,30.4 -131.2,0 -262.4,0 -393.6,0 -121.7,0 -243.4,-0.1 -365.1,0.1 -15.6,0 -30.7,2.2 -45,10.6 -19,11.2 -29.7,40.7 -26.2,60.8 5.6,32.8 28.7,50.3 60.3,52.8 4.4,0.3 8.8,0.2 13.1,0.2 251.1,0 502.1,0 753.2,0 30.4,0 59.3,6.5 82,27.3 16.1,14.8 26.1,34.3 29.7,57 5.1,32.3 -3.7,60.1 -24.6,86.1 z"
     id="path4"
     style="fill:#999999;fill-opacity:1;stroke:none" /><path
     d="m 787.9,695.3 c -0.3,39.1 -8.2,75.1 -34.3,109.1 1.4,-21.7 0.6,-39.8 -12,-58 -6.7,32.2 -23.2,57 -38.5,82.6 -16.8,28.1 -15.8,57.7 -4.3,87.5 1.3,3.4 2.6,6.8 3.8,10.2 0.1,0.2 -0.2,0.6 -0.9,2.3 -43,-26.7 -85.2,-53.6 -93.8,-109.4 -4.2,-27.1 2.1,-53 12.9,-77.8 6.9,-15.7 15.3,-30.7 21.9,-46.5 6.3,-15.1 11.1,-30.7 16.7,-46.5 11.1,17.6 12.3,38.9 14.7,60.7 45.4,-43 75.7,-114.2 78.1,-183.1 30.7,13 53.3,34.5 71.9,60.7 18.6,26.1 30.5,55.4 39.2,86.5 15.2,-12.4 17.8,-28.7 11.3,-68.3 1.5,0.9 2.8,1.4 3.7,2.3 39.6,40.2 68.3,86.3 77,143.1 7.1,46.2 -6.4,86.6 -36.1,122 -19.5,23.2 -43.5,40.9 -70.3,56.7 32.9,-92.9 12.1,-170.3 -61,-234.1 z"
     id="path6"
     style="fill:#999999;fill-opacity:1;stroke:none" /><path
     d="m 619.2,562.7 c -10.5,10.4 -21.6,20.2 -31.2,31.4 -5,5.8 -9.4,8.5 -17.2,8.5 -150.9,-0.2 -301.8,-0.2 -452.7,-0.1 -14.6,0 -28.3,2.9 -41.8,10.3 -18.7,10.2 -29.8,41.8 -26.4,60.7 6.5,36.1 31.7,53.4 70,53.4 132.3,0.3 264.6,0.1 396.8,0.1 4.7,0 9.4,0 16.1,0 -2.9,12.7 -5,24.3 -8.6,35.5 -0.7,2.2 -7.3,3.5 -11.2,3.5 -50.4,0.2 -100.9,0.2 -151.3,0.2 -78.6,0 -157.1,-0.1 -235.7,0 -31.2,0 -60.8,-6.2 -84.2,-27.5 -15.5,-14.2 -25.2,-33 -29.4,-54.7 -6.9,-35.3 3.2,-66 26,-91 14.7,-16.2 35.6,-26.4 59,-27.9 10.2,-0.6 20.3,-2.3 30.5,-2.3 160.8,-0.1 321.6,-0.1 482.3,-0.1 3.6,0 7.3,0 9,0 z"
     id="path8"
     style="fill:#999999;fill-opacity:1;stroke:none" /><path
     d="m 10.1,928.6 c 0,-12.8 0,-24.7 0,-38.5 4.2,0 8,0 11.9,0 168.5,0 337,0 505.4,-0.1 7.3,0 11.9,1.6 15.6,8.5 5.6,10.1 12.8,19.3 20.1,30.1 -184.8,0 -368.3,0 -553,0 z"
     id="path10"
     style="fill:#999999;fill-opacity:1;stroke:none" /></g>
</svg>
