<?xml version="1.0" encoding="UTF-8" standalone="no"?>
<svg
   xmlns:dc="http://purl.org/dc/elements/1.1/"
   xmlns:cc="http://creativecommons.org/ns#"
   xmlns:rdf="http://www.w3.org/1999/02/22-rdf-syntax-ns#"
   xmlns:svg="http://www.w3.org/2000/svg"
   xmlns="http://www.w3.org/2000/svg"
   xmlns:sodipodi="http://sodipodi.sourceforge.net/DTD/sodipodi-0.dtd"
   xmlns:inkscape="http://www.inkscape.org/namespaces/inkscape"
   version="1.1"
   x="0px"
   y="0px"
   viewBox="0 0 200 180"
   enable-background="new 0 0 1000 1000"
   xml:space="preserve"
   id="svg16"
   sodipodi:docname="paralel.svg"
   inkscape:version="1.0.2-2 (e86c870879, 2021-01-15)"
   inkscape:export-filename="C:\Users\user\Desktop\paralell.png"
   inkscape:export-xdpi="96"
   inkscape:export-ydpi="96"
   width="200"
   height="180"><defs
   id="defs20"><inkscape:path-effect
     effect="fillet_chamfer"
     id="path-effect3131"
     is_visible="true"
     lpeversion="1"
     satellites_param="F,0,0,1,0,0,0,1 @ F,0,0,1,0,259.09417,0,1 @ F,0,0,1,0,265.70281,0,1 @ F,0,0,1,0,269.21174,0,1 @ F,0,0,1,0,259.23921,0,1 @ F,0,0,1,0,0,0,1"
     unit="px"
     method="auto"
     mode="F"
     radius="0"
     chamfer_steps="1"
     flexible="false"
     use_knot_distance="true"
     apply_no_radius="true"
     apply_with_radius="true"
     only_selected="false"
     hide_knots="false" /><marker
     style="overflow:visible"
     id="marker2799"
     refX="0"
     refY="0"
     orient="auto"
     inkscape:stockid="TriangleOutL"
     inkscape:isstock="true"><path
       transform="scale(0.8)"
       style="fill:#a09f9f;fill-opacity:1;fill-rule:evenodd;stroke:#a09f9f;stroke-width:1pt;stroke-opacity:1"
       d="M 5.77,0 -2.88,5 V -5 Z"
       id="path2797" /></marker><inkscape:path-effect
     effect="fillet_chamfer"
     id="path-effect2735"
     is_visible="true"
     lpeversion="1"
     satellites_param="F,0,0,1,0,0,0,1 @ F,0,0,1,0,255.34767,0,1 @ F,0,0,1,0,279.51807,0,1 @ F,0,0,1,0,260.48269,0,1 @ F,0,0,1,0,0,0,1"
     unit="px"
     method="auto"
     mode="F"
     radius="0"
     chamfer_steps="1"
     flexible="false"
     use_knot_distance="true"
     apply_no_radius="true"
     apply_with_radius="true"
     only_selected="false"
     hide_knots="false" /><inkscape:path-effect
     effect="fillet_chamfer"
     id="path-effect1906"
     is_visible="true"
     lpeversion="1"
     satellites_param="F,0,0,1,0,0,0,1 @ F,0,0,1,0,139.75904,0,1 @ F,0,0,1,0,118.07229,0,1 @ F,0,0,1,0,0,0,1"
     unit="px"
     method="auto"
     mode="F"
     radius="0"
     chamfer_steps="1"
     flexible="false"
     use_knot_distance="true"
     apply_no_radius="true"
     apply_with_radius="true"
     only_selected="false"
     hide_knots="false" /><marker
     style="overflow:visible"
     id="Arrow1Lend"
     refX="0"
     refY="0"
     orient="auto"
     inkscape:stockid="Arrow1Lend"
     inkscape:isstock="true"><path
       transform="matrix(-0.8,0,0,-0.8,-10,0)"
       style="fill:#b3b3b3;fill-opacity:1;fill-rule:evenodd;stroke:#b3b3b3;stroke-width:1pt;stroke-opacity:1"
       d="M 0,0 5,-5 -12.5,0 5,5 Z"
       id="path860" /></marker><marker
     style="overflow:visible"
     id="TriangleOutL-3"
     refX="0"
     refY="0"
     orient="auto"
     inkscape:stockid="TriangleOutL"
     inkscape:isstock="true"><path
       transform="scale(0.8)"
       style="fill:#b3b3b3;fill-opacity:1;fill-rule:evenodd;stroke:#b3b3b3;stroke-width:1pt;stroke-opacity:1"
       d="M 5.77,0 -2.88,5 V -5 Z"
       id="path999-2" /></marker><marker
     style="overflow:visible"
     id="marker1567-4"
     refX="0"
     refY="0"
     orient="auto"
     inkscape:stockid="TriangleOutL"
     inkscape:isstock="true"><path
       transform="scale(0.8)"
       style="fill:#9f9f9f;fill-opacity:1;fill-rule:evenodd;stroke:#9f9f9f;stroke-width:1pt;stroke-opacity:1"
       d="M 5.77,0 -2.88,5 V -5 Z"
       id="path1565-6" /></marker><marker
     style="overflow:visible"
     id="marker1567-9"
     refX="0"
     refY="0"
     orient="auto"
     inkscape:stockid="TriangleOutL"
     inkscape:isstock="true"><path
       transform="scale(0.8)"
       style="fill:#9f9f9f;fill-opacity:1;fill-rule:evenodd;stroke:#9f9f9f;stroke-width:1pt;stroke-opacity:1"
       d="M 5.77,0 -2.88,5 V -5 Z"
       id="path1565-7" /></marker><marker
     style="overflow:visible"
     id="marker1567-0"
     refX="0"
     refY="0"
     orient="auto"
     inkscape:stockid="TriangleOutL"
     inkscape:isstock="true"><path
       transform="scale(0.8)"
       style="fill:#9f9f9f;fill-opacity:1;fill-rule:evenodd;stroke:#9f9f9f;stroke-width:1pt;stroke-opacity:1"
       d="M 5.77,0 -2.88,5 V -5 Z"
       id="path1565-5" /></marker><marker
     style="overflow:visible"
     id="marker1567-99"
     refX="0"
     refY="0"
     orient="auto"
     inkscape:stockid="TriangleOutL"
     inkscape:isstock="true"
     inkscape:collect="always"><path
       transform="scale(0.8)"
       style="fill:#9f9f9f;fill-opacity:1;fill-rule:evenodd;stroke:#9f9f9f;stroke-width:1pt;stroke-opacity:1"
       d="M 5.77,0 -2.88,5 V -5 Z"
       id="path1565-3" /></marker><marker
     style="overflow:visible"
     id="marker1567-99-2"
     refX="0"
     refY="0"
     orient="auto"
     inkscape:stockid="TriangleOutL"
     inkscape:isstock="true"
     inkscape:collect="always"><path
       transform="scale(0.8)"
       style="fill:#9f9f9f;fill-opacity:1;fill-rule:evenodd;stroke:#9f9f9f;stroke-width:1pt;stroke-opacity:1"
       d="M 5.77,0 -2.88,5 V -5 Z"
       id="path1565-3-2" /></marker><marker
     style="overflow:visible"
     id="marker1567-99-6"
     refX="0"
     refY="0"
     orient="auto"
     inkscape:stockid="TriangleOutL"
     inkscape:isstock="true"
     inkscape:collect="always"><path
       transform="scale(0.8)"
       style="fill:#9f9f9f;fill-opacity:1;fill-rule:evenodd;stroke:#9f9f9f;stroke-width:1pt;stroke-opacity:1"
       d="M 5.77,0 -2.88,5 V -5 Z"
       id="path1565-3-6" /></marker><marker
     style="overflow:visible"
     id="marker1567-99-7"
     refX="0"
     refY="0"
     orient="auto"
     inkscape:stockid="TriangleOutL"
     inkscape:isstock="true"
     inkscape:collect="always"><path
       transform="scale(0.8)"
       style="fill:#9f9f9f;fill-opacity:1;fill-rule:evenodd;stroke:#9f9f9f;stroke-width:1pt;stroke-opacity:1"
       d="M 5.77,0 -2.88,5 V -5 Z"
       id="path1565-3-63" /></marker></defs><sodipodi:namedview
   pagecolor="#ffffff"
   bordercolor="#666666"
   borderopacity="1"
   objecttolerance="10"
   gridtolerance="10"
   guidetolerance="10"
   inkscape:pageopacity="0"
   inkscape:pageshadow="2"
   inkscape:window-width="1920"
   inkscape:window-height="1001"
   id="namedview18"
   showgrid="false"
   inkscape:zoom="2.3475946"
   inkscape:cx="66.60063"
   inkscape:cy="114.7466"
   inkscape:window-x="-9"
   inkscape:window-y="-9"
   inkscape:window-maximized="1"
   inkscape:current-layer="svg16"
   inkscape:document-rotation="0"
   fit-margin-top="0"
   fit-margin-left="0"
   fit-margin-right="0"
   fit-margin-bottom="0" />
<metadata
   id="metadata2"> Svg Vector Icons : http://www.onlinewebfonts.com/icon <rdf:RDF><cc:Work
     rdf:about=""><dc:format>image/svg+xml</dc:format><dc:type
       rdf:resource="http://purl.org/dc/dcmitype/StillImage" /><dc:title></dc:title></cc:Work></rdf:RDF></metadata>

<g
   id="g3720"
   transform="matrix(0.07511004,0,0,0.07511004,6.3579292,2.5233709)"
   style="stroke-width:36.94579313;stroke-miterlimit:4;stroke-dasharray:none"><g
     id="g1998"
     transform="translate(720.19558)"
     style="stroke-width:36.94579313;stroke-miterlimit:4;stroke-dasharray:none"><path
       d="m 5.761513,572.14245 c -5.76,4.17 -7.55,13.11 -3.77,20.46 3.58,6.75 6.56,8.34 16.68,8.34 14.1,0.2 37.94,5.56 50.25,11.52 6.95,3.38 20.86,11.92 30.79,18.87 44.099997,31.58 77.859997,41.91 122.749997,37.14 31.98,-3.38 49.46,-10.53 84.62,-34.76 11.52,-7.95 25.42,-16.68 30.79,-19.27 29.2,-14.9 66.54,-17.08 100.51,-6.16 5.96,1.99 22.64,11.52 38.14,21.85 48.47,32.77 65.15,38.73 107.66,38.73 41.32,0 61.57,-6.95 102.29,-35.16 24.24,-16.68 36.75,-23.24 51.64,-27.61 24.63,-6.95 56.41,-5.76 80.84,2.78 6.35,2.19 24.23,12.51 39.52,22.84 40.52,27.21 54.03,32.97 87.8,36.75 21.25,2.38 27.41,0.8 31.78,-8.54 5.56,-11.52 -2.78,-23.24 -16.29,-23.24 -12.51,0 -31.98,-3.58 -44.29,-8.14 -5.96,-2.38 -24.24,-13.11 -40.32,-23.83 -43.3,-29 -61.97,-35.56 -103.29,-35.56 -40.12,0 -61.97,7.55 -101.1,34.56 -11.52,7.95 -26.42,17.28 -33.17,20.66 -30.39,15.29 -75.48,16.09 -106.86,1.79 -5.76,-2.78 -22.45,-12.91 -37.14,-23.04 -40.32,-27.21 -60.18,-33.97 -101.1,-33.97 -39.92,0 -61.77,7.55 -101.3,34.76 -11.52,7.95 -26.22,17.08 -32.97,20.46 -30.39,15.29 -75.68,16.09 -106.66,1.79 -5.76,-2.58 -22.84,-13.31 -38.34,-23.64 -37.139997,-25.03 -60.179997,-33.37 -91.969997,-33.37 -8.55,0.01 -14.71,1 -17.49,2.99 z"
       id="path8"
       style="fill:#999999;fill-opacity:1;stroke-width:36.94579313;stroke-miterlimit:4;stroke-dasharray:none" /><path
       d="m 7.8543,806.52365 c -4.57,1.79 -8.74,12.51 -7.35,18.67 1.79,8.14 7.55,11.12 23.84,12.71 30.79,2.78 44.89,8.54 78.45999,31.78 40.92,28.21 61.18,35.16 102.29,35.36 41.51,0.2 60.58,-6.36 102.29,-34.76 29.6,-20.26 36.95,-24.03 53.83,-28.4 16.88,-4.57 50.25,-4.57 66.74,-0.4 16.69,4.37 26.62,9.73 59.39,31.58 20.86,14.1 31.78,20.06 44.1,24.03 21.25,7.15 44.69,9.93 65.75,8.34 33.57,-2.78 52.04,-9.93 87.4,-33.77 15.1,-10.13 30.99,-20.26 35.36,-22.44 13.9,-7.15 32.18,-10.73 54.22,-10.92 34.37,0 50.06,5.56 87.6,31.58 35.16,24.43 56.21,32.57 90.38,35.55 15.1,1.39 16.29,1.19 21.65,-3.57 4.37,-3.78 5.76,-6.55 5.76,-12.32 0,-10.92 -7.55,-16.88 -21.25,-16.88 -25.82,-0.2 -50.45,-9.73 -80.84,-31.78 -38.33,-27.61 -67.93,-36.94 -111.04,-35.16 -39.13,1.59 -52.64,6.75 -98.91,37.94 -36.75,24.63 -46.88,28.01 -83.03,28.01 -35.55,0 -46.48,-3.77 -82.43,-28.01 -48.86,-32.97 -61.97,-37.54 -107.26,-37.54 -26.62,0 -32.77,0.6 -45.68,4.57 -18.08,5.76 -35.36,14.9 -57.21,30.39 -33.77,24.23 -54.03,31.58 -85.61,31.58 -33.17,-0.2 -53.43,-7.35 -86.6,-31.19 -33.78999,-24.23 -66.75999,-36.54 -96.75999,-36.14 -6.95,0 -13.7,0.59 -15.09,1.19 z"
       id="path10"
       style="fill:#999999;fill-opacity:1;stroke-width:36.94579313;stroke-miterlimit:4;stroke-dasharray:none" /><path
       d="m 495.92554,168.9 c -0.3,39.1 -8.2,75.1 -34.3,109.1 1.4,-21.7 0.6,-39.8 -12,-58 -6.7,32.2 -23.2,57 -38.5,82.6 -16.8,28.1 -15.8,57.7 -4.3,87.5 1.3,3.4 2.6,6.8 3.8,10.2 0.1,0.2 -0.2,0.6 -0.9,2.3 -43,-26.7 -85.2,-53.6 -93.8,-109.4 -4.2,-27.1 2.1,-53 12.9,-77.8 6.9,-15.7 15.3,-30.7 21.9,-46.5 6.3,-15.1 11.1,-30.7 16.7,-46.5 11.1,17.6 12.3,38.9 14.7,60.7 45.4,-43 75.7,-114.200001 78.1,-183.1 30.7,12.999999 53.3,34.499999 71.9,60.699999 18.6,26.1 30.5,55.400001 39.2,86.500001 15.2,-12.4 17.8,-28.7 11.3,-68.300001 1.5,0.9 2.8,1.4 3.7,2.3 39.6,40.200001 68.3,86.300001 77,143.100001 7.1,46.2 -6.4,86.6 -36.1,122 -19.5,23.2 -43.5,40.9 -70.3,56.7 32.9,-92.9 12.1,-170.3 -61,-234.1 z"
       id="path6"
       style="fill:#999999;fill-opacity:1;stroke:none;stroke-width:36.94579313;stroke-miterlimit:4;stroke-dasharray:none" /><path
       d="m 5.761513,690.33643 c -5.76,4.17 -7.55,13.11 -3.77,20.46 3.58,6.75 6.56,8.34 16.68,8.34 14.1,0.2 37.94,5.56 50.25,11.52 6.95,3.38 20.86,11.92 30.79,18.87 44.099997,31.58 77.859997,41.91 122.749997,37.14 31.98,-3.38 49.46,-10.53 84.62,-34.76 11.52,-7.95 25.42001,-16.68 30.79001,-19.27 29.2,-14.9 66.54,-17.08 100.51,-6.16 5.95999,1.99 22.63999,11.52 38.13999,21.85 48.47,32.77 65.15001,38.73 107.66001,38.73 41.32,0 61.57,-6.95 102.28999,-35.16 24.24,-16.68 36.75,-23.24 51.64,-27.61 24.63,-6.95 56.41,-5.76 80.84,2.78 6.35001,2.19 24.23001,12.51 39.52,22.84 40.52,27.21 54.03,32.97 87.8,36.75 21.25,2.38 27.41,0.8 31.78,-8.54 5.56,-11.52 -2.78,-23.24 -16.29,-23.24 -12.51,0 -31.98,-3.58 -44.29,-8.14 -5.96,-2.38 -24.24,-13.11 -40.32,-23.83 -43.3,-29 -61.97,-35.56 -103.29,-35.56 -40.12,0 -61.97,7.55 -101.1,34.56 -11.52,7.95 -26.42,17.28 -33.17,20.66 -30.39,15.29 -75.48,16.09 -106.86,1.79 -5.76,-2.78 -22.45,-12.91 -37.14,-23.04 -40.32,-27.21 -60.18,-33.97 -101.1,-33.97 -39.92,0 -61.77,7.55 -101.3,34.76 -11.52,7.95 -26.22,17.08 -32.97,20.46 -30.39,15.29 -75.68,16.09 -106.66,1.79 -5.76,-2.58 -22.84,-13.31 -38.34,-23.64 -37.139997,-25.03 -60.179997,-33.37 -91.969997,-33.37 -8.55,0.01 -14.71,1 -17.49,2.99 z"
       id="path8-1"
       style="fill:#999999;fill-opacity:1;stroke-width:36.94579313;stroke-miterlimit:4;stroke-dasharray:none" /><path
       d="m 5.761515,453.94846 c -5.76,4.17 -7.55,13.11 -3.77,20.46 3.58,6.75 6.56,8.34 16.68,8.34 14.1,0.2 37.94,5.56 50.25,11.52 6.95,3.38 20.859998,11.92 30.789998,18.87 44.099997,31.58 77.859997,41.91 122.749997,37.14 31.98,-3.38 49.46,-10.53 84.62,-34.76 11.52,-7.95 25.42,-16.68 30.79,-19.27 29.2,-14.9 66.54,-17.08 100.51,-6.16 5.96,1.99 22.64,11.52 38.14,21.85 48.47,32.77 65.15,38.73 107.66,38.73 41.32,0 61.57,-6.95 102.29,-35.16 24.24,-16.68 36.75,-23.24 51.64,-27.61 24.63,-6.95 56.41,-5.76 80.84,2.78 6.35,2.19 24.23,12.51 39.52,22.84 40.52,27.21 54.03,32.97 87.8,36.75 21.25,2.38 27.41,0.8 31.78,-8.54 5.55998,-11.52 -2.78,-23.24 -16.29,-23.24 -12.51,0 -31.98,-3.58 -44.29,-8.14 -5.96,-2.38 -24.24,-13.11 -40.32,-23.83 -43.3,-29 -61.97,-35.56 -103.29,-35.56 -40.12,0 -61.97,7.55 -101.1,34.56 -11.52,7.95 -26.42,17.28 -33.17,20.66 -30.39,15.29 -75.48,16.09 -106.86,1.79 -5.76,-2.78 -22.45,-12.91 -37.14,-23.04 -40.32,-27.21 -60.18,-33.97 -101.1,-33.97 -39.92,0 -61.77,7.55 -101.3,34.76 -11.52,7.95 -26.22,17.08 -32.97,20.46 -30.39,15.29 -75.68,16.09 -106.66,1.79 -5.76,-2.58 -22.84,-13.31 -38.34,-23.64 -37.139995,-25.03 -60.179995,-33.37 -91.969995,-33.37 -8.55,0.01 -14.71,1 -17.49,2.99 z"
       id="path8-3"
       style="fill:#999999;fill-opacity:1;stroke-width:36.94579313;stroke-miterlimit:4;stroke-dasharray:none" /></g><g
     id="g867"
     transform="translate(710.09864,1077.4972)"
     style="stroke-width:36.94579313;stroke-miterlimit:4;stroke-dasharray:none"><path
       d="m 963.7,569.1 c -9,-9.5 -17.5,-18.5 -25.5,-26.8 4.1,-10.9 9.4,-21 11.7,-31.8 4.8,-22 -2.9,-41.3 -18.6,-56.4 -13.2,-12.7 -30.8,-16 -48.7,-16.1 -49,-0.1 -97.9,0 -146.9,0 -205,0 -410,0 -615.1,0 -29.9,0 -57.4,-8.1 -79.5,-27.9 -10.5,-9.4 -19.2,-22.8 -24,-36 -14.3,-39.9 -7,-77.7 21.1,-109 11.1,-12.3 26.6,-23.1 45.1,-25 19.2,-2 38.4,-4.8 57.6,-4.8 245.6,-0.3 491.2,0.2 736.7,-1 18.6,-0.1 39.6,-7.6 54.9,-18.3 16.4,-11.4 21,-32.6 17.5,-53.5 -6,-36.2 -31,-52.8 -66.9,-52.9 -164.1,-0.6 -328.2,0 -492.3,0.2 -118.6,0.2 -237.3,0.2 -356.1,0.2 -7.9,0 -15.9,0 -24.4,0 0,-13.2 0,-25.4 0,-39 5.2,0 9.8,0 14.4,0 284.3,0 568.6,0.1 853,-0.1 30.2,0 58.6,6.7 80.9,27.2 15.2,13.9 24.8,32.3 29.1,53.7 7.2,35.6 -2.6,67 -26,92 -21,22.5 -50.8,30.4 -81.8,30.4 -131.2,0 -262.4,0 -393.6,0 -121.7,0 -243.4,-0.1 -365.1,0.1 -15.6,0 -30.7,2.2 -45,10.6 -19,11.2 -29.7,40.7 -26.2,60.8 5.6,32.8 28.7,50.3 60.3,52.8 4.4,0.3 8.8,0.2 13.1,0.2 251.1,0 502.1,0 753.2,0 30.4,0 59.3,6.5 82,27.3 16.1,14.8 26.1,34.3 29.7,57 5.1,32.3 -3.7,60.1 -24.6,86.1 z"
       id="path4"
       style="fill:#999999;fill-opacity:1;stroke:none;stroke-width:36.94579313;stroke-miterlimit:4;stroke-dasharray:none" /><path
       d="m 787.9,695.3 c -0.3,39.1 -8.2,75.1 -34.3,109.1 1.4,-21.7 0.6,-39.8 -12,-58 -6.7,32.2 -23.2,57 -38.5,82.6 -16.8,28.1 -15.8,57.7 -4.3,87.5 1.3,3.4 2.6,6.8 3.8,10.2 0.1,0.2 -0.2,0.6 -0.9,2.3 -43,-26.7 -85.2,-53.6 -93.8,-109.4 -4.2,-27.1 2.1,-53 12.9,-77.8 6.9,-15.7 15.3,-30.7 21.9,-46.5 6.3,-15.1 11.1,-30.7 16.7,-46.5 11.1,17.6 12.3,38.9 14.7,60.7 45.4,-43 75.7,-114.2 78.1,-183.1 30.7,13 53.3,34.5 71.9,60.7 18.6,26.1 30.5,55.4 39.2,86.5 15.2,-12.4 17.8,-28.7 11.3,-68.3 1.5,0.9 2.8,1.4 3.7,2.3 39.6,40.2 68.3,86.3 77,143.1 7.1,46.2 -6.4,86.6 -36.1,122 -19.5,23.2 -43.5,40.9 -70.3,56.7 32.9,-92.9 12.1,-170.3 -61,-234.1 z"
       id="path6-7"
       style="fill:#999999;fill-opacity:1;stroke:none;stroke-width:36.94579313;stroke-miterlimit:4;stroke-dasharray:none" /><path
       d="m 619.2,562.7 c -10.5,10.4 -21.6,20.2 -31.2,31.4 -5,5.8 -9.4,8.5 -17.2,8.5 -150.9,-0.2 -301.8,-0.2 -452.7,-0.1 -14.6,0 -28.3,2.9 -41.8,10.3 -18.7,10.2 -29.8,41.8 -26.4,60.7 6.5,36.1 31.7,53.4 70,53.4 132.3,0.3 264.6,0.1 396.8,0.1 4.7,0 9.4,0 16.1,0 -2.9,12.7 -5,24.3 -8.6,35.5 -0.7,2.2 -7.3,3.5 -11.2,3.5 -50.4,0.2 -100.9,0.2 -151.3,0.2 -78.6,0 -157.1,-0.1 -235.7,0 -31.2,0 -60.8,-6.2 -84.2,-27.5 -15.5,-14.2 -25.2,-33 -29.4,-54.7 -6.9,-35.3 3.2,-66 26,-91 14.7,-16.2 35.6,-26.4 59,-27.9 10.2,-0.6 20.3,-2.3 30.5,-2.3 160.8,-0.1 321.6,-0.1 482.3,-0.1 3.6,0 7.3,0 9,0 z"
       id="path8-9"
       style="fill:#999999;fill-opacity:1;stroke:none;stroke-width:36.94579313;stroke-miterlimit:4;stroke-dasharray:none" /><path
       d="m 10.1,928.6 c 0,-12.8 0,-24.7 0,-38.5 4.2,0 8,0 11.9,0 168.5,0 337,0 505.4,-0.1 7.3,0 11.9,1.6 15.6,8.5 5.6,10.1 12.8,19.3 20.1,30.1 -184.8,0 -368.3,0 -553,0 z"
       id="path10-8"
       style="fill:#999999;fill-opacity:1;stroke:none;stroke-width:36.94579313;stroke-miterlimit:4;stroke-dasharray:none" /></g><path
     style="opacity:0.992;fill:none;stroke:#9f9f9f;stroke-width:36.94579313;stroke-linecap:butt;stroke-linejoin:miter;stroke-miterlimit:4;stroke-dasharray:none;stroke-opacity:1"
     d="m 1799.7581,450.9081 399.1771,0.79548 a 259.49601,259.49601 45.069782 0 1 258.9789,259.61046 l -0.6088,1374.02766 a 265.82056,265.82056 135.01269 0 1 -265.8205,265.7028 H 282.09665 A 269.51219,269.51219 44.968046 0 1 12.584627,2081.8329 L 11.057515,712.71435 A 259.13545,259.13545 134.94756 0 1 270.0075,453.28992 l 277.06772,-0.19812"
     id="path2036"
     sodipodi:nodetypes="cccccc"
     inkscape:path-effect="#path-effect3131"
     inkscape:original-d="m 1799.7581,450.9081 658.2708,1.3118 -0.8413,1898.8246 H 12.884905 L 10.76836,453.4753 547.07522,453.0918" /><path
     style="opacity:0.992;fill:none;stroke:#9f9f9f;stroke-width:36.94579313;stroke-linecap:butt;stroke-linejoin:miter;stroke-miterlimit:4;stroke-dasharray:none;stroke-opacity:1"
     d="m 1799.7581,1577.6472 h 654.7126"
     id="path2036-3" /><path
     style="fill:none;stroke:#9f9f9f;stroke-width:36.94579313;stroke-linecap:butt;stroke-linejoin:miter;stroke-miterlimit:4;stroke-dasharray:none;stroke-opacity:1"
     d="M 8.6518188,1577.6472 H 547.07522"
     id="path2036-2" /><path
     style="opacity:0.992;fill:none;stroke:#9f9f9f;stroke-width:36.94579313;stroke-linecap:butt;stroke-linejoin:miter;stroke-miterlimit:4;stroke-dasharray:none;stroke-opacity:1;marker-end:url(#marker1567-99)"
     d="m 1930.5295,453.5628 h 143.0739"
     id="path2036-9" /><path
     style="opacity:0.992;fill:none;stroke:#9f9f9f;stroke-width:36.94579313;stroke-linecap:butt;stroke-linejoin:miter;stroke-miterlimit:4;stroke-dasharray:none;stroke-opacity:1;marker-end:url(#marker1567-99-2)"
     d="M 336.95011,453.1176 H 480.02412"
     id="path2036-9-2" /><path
     style="opacity:0.992;fill:none;stroke:#9f9f9f;stroke-width:36.94579313;stroke-linecap:butt;stroke-linejoin:miter;stroke-miterlimit:4;stroke-dasharray:none;stroke-opacity:1;marker-end:url(#marker1567-99-6)"
     d="m 1930.5295,1577.1755 h 143.0739"
     id="path2036-9-27" /><path
     style="opacity:0.992;fill:none;stroke:#9f9f9f;stroke-width:36.94579313;stroke-linecap:butt;stroke-linejoin:miter;stroke-miterlimit:4;stroke-dasharray:none;stroke-opacity:1;marker-end:url(#marker1567-99-7)"
     d="M 336.95011,1577.3593 H 480.02412"
     id="path2036-9-5" /></g></svg>
