<?xml version="1.0" encoding="UTF-8" standalone="no"?>
<svg
   xmlns:dc="http://purl.org/dc/elements/1.1/"
   xmlns:cc="http://creativecommons.org/ns#"
   xmlns:rdf="http://www.w3.org/1999/02/22-rdf-syntax-ns#"
   xmlns:svg="http://www.w3.org/2000/svg"
   xmlns="http://www.w3.org/2000/svg"
   xmlns:sodipodi="http://sodipodi.sourceforge.net/DTD/sodipodi-0.dtd"
   xmlns:inkscape="http://www.inkscape.org/namespaces/inkscape"
   version="1.1"
   x="0px"
   y="0px"
   viewBox="0 0 1000 1000"
   enable-background="new 0 0 1000 1000"
   xml:space="preserve"
   id="svg16"
   sodipodi:docname="pool.svg"
   inkscape:version="1.0.2-2 (e86c870879, 2021-01-15)"
   inkscape:export-filename="C:\Users\user\Desktop\pool.png"
   inkscape:export-xdpi="96"
   inkscape:export-ydpi="96"><defs
   id="defs20" /><sodipodi:namedview
   pagecolor="#ffffff"
   bordercolor="#666666"
   borderopacity="1"
   objecttolerance="10"
   gridtolerance="10"
   guidetolerance="10"
   inkscape:pageopacity="0"
   inkscape:pageshadow="2"
   inkscape:window-width="1920"
   inkscape:window-height="1001"
   id="namedview18"
   showgrid="false"
   inkscape:zoom="0.58689863"
   inkscape:cx="317.97185"
   inkscape:cy="519.69158"
   inkscape:window-x="-9"
   inkscape:window-y="-9"
   inkscape:window-maximized="1"
   inkscape:current-layer="svg16" />
<metadata
   id="metadata2"> Svg Vector Icons : http://www.onlinewebfonts.com/icon <rdf:RDF><cc:Work
     rdf:about=""><dc:format>image/svg+xml</dc:format><dc:type
       rdf:resource="http://purl.org/dc/dcmitype/StillImage" /></cc:Work></rdf:RDF></metadata>

<path
   d="m 18.29489,601.9088 c -5.76,4.17 -7.55,13.11 -3.77,20.46 3.58,6.75 6.56,8.34 16.68,8.34 14.1,0.2 37.94,5.56 50.25,11.52 6.95,3.38 20.86,11.92 30.79,18.87 44.1,31.58 77.86,41.91 122.75,37.14 31.98,-3.38 49.46,-10.53 84.62,-34.76 11.52,-7.95 25.42,-16.68 30.79,-19.27 29.2,-14.9 66.54,-17.08 100.51,-6.16 5.96,1.99 22.64,11.52 38.14,21.85 48.47,32.77 65.15,38.73 107.66,38.73 41.32,0 61.57,-6.95 102.29,-35.16 24.24,-16.68 36.75,-23.24 51.64,-27.61 24.63,-6.95 56.41,-5.76 80.84,2.78 6.35,2.19 24.23,12.51 39.52,22.84 40.52,27.21 54.03,32.97 87.8,36.75 21.25,2.38 27.41,0.8 31.78,-8.54 5.56,-11.52 -2.78,-23.24 -16.29,-23.24 -12.51,0 -31.98,-3.58 -44.29,-8.14 -5.96,-2.38 -24.24,-13.11 -40.32,-23.83 -43.3,-29 -61.97,-35.56 -103.29,-35.56 -40.12,0 -61.97,7.55 -101.1,34.56 -11.52,7.95 -26.42,17.28 -33.17,20.66 -30.39,15.29 -75.48,16.09 -106.86,1.79 -5.76,-2.78 -22.45,-12.91 -37.14,-23.04 -40.32,-27.21 -60.18,-33.97 -101.1,-33.97 -39.92,0 -61.77,7.55 -101.3,34.76 -11.52,7.95 -26.22,17.08 -32.97,20.46 -30.39,15.29 -75.68,16.09 -106.66,1.79 -5.76,-2.58 -22.84,-13.31 -38.34,-23.64 -37.14,-25.03 -60.18,-33.37 -91.97,-33.37 -8.55,0.01 -14.71,1 -17.49,2.99 z"
   id="path8"
   style="fill:#999999;fill-opacity:1;stroke-width:0.1" /><path
   d="m 20.387677,836.29 c -4.57,1.79 -8.74,12.51 -7.35,18.67 1.79,8.14 7.55,11.12 23.84,12.71 30.79,2.78 44.89,8.54 78.459993,31.78 40.92,28.21 61.18,35.16 102.29,35.36 41.51,0.2 60.58,-6.36 102.29,-34.76 29.6,-20.26 36.95,-24.03 53.83,-28.4 16.88,-4.57 50.25,-4.57 66.74,-0.4 16.69,4.37 26.62,9.73 59.39,31.58 20.86,14.1 31.78,20.06 44.1,24.03 21.25,7.15 44.69,9.93 65.75,8.34 33.57,-2.78 52.04,-9.93 87.4,-33.77 15.1,-10.13 30.99,-20.26 35.36,-22.44 13.9,-7.15 32.18,-10.73 54.22,-10.92 34.37,0 50.06,5.56 87.6,31.58 35.16,24.43 56.21,32.57 90.38,35.55 15.1,1.39 16.29,1.19 21.65,-3.57 4.37,-3.78 5.76,-6.55 5.76,-12.32 0,-10.92 -7.55,-16.88 -21.25,-16.88 -25.82,-0.2 -50.45,-9.73 -80.84,-31.78 -38.33,-27.61 -67.93,-36.94 -111.04,-35.16 -39.13,1.59 -52.64,6.75 -98.91,37.94 -36.75,24.63 -46.88,28.01 -83.03,28.01 -35.55,0 -46.48,-3.77 -82.43,-28.01 -48.86,-32.97 -61.97,-37.54 -107.26,-37.54 -26.62,0 -32.77,0.6 -45.68,4.57 -18.08,5.76 -35.36,14.9 -57.21,30.39 -33.77,24.23 -54.03,31.58 -85.61,31.58 -33.17,-0.2 -53.43,-7.35 -86.6,-31.19 C 98.447677,847.01 65.477677,834.7 35.477677,835.1 c -6.95,0 -13.7,0.59 -15.09,1.19 z"
   id="path10"
   style="fill:#999999;fill-opacity:1;stroke-width:0.1" /><path
   d="m 508.45892,198.66635 c -0.3,39.1 -8.2,75.1 -34.3,109.1 1.4,-21.7 0.6,-39.8 -12,-58 -6.7,32.2 -23.2,57 -38.5,82.6 -16.8,28.1 -15.8,57.7 -4.3,87.5 1.3,3.4 2.6,6.8 3.8,10.2 0.1,0.2 -0.2,0.6 -0.9,2.3 -43,-26.7 -85.2,-53.6 -93.8,-109.4 -4.2,-27.1 2.1,-53 12.9,-77.8 6.9,-15.7 15.3,-30.7 21.9,-46.5 6.3,-15.1 11.1,-30.7 16.7,-46.5 11.1,17.6 12.3,38.9 14.7,60.7 45.4,-43 75.7,-114.2 78.1,-183.099999 30.7,12.999999 53.3,34.499999 71.9,60.699999 18.6,26.1 30.5,55.4 39.2,86.5 15.2,-12.4 17.8,-28.7 11.3,-68.3 1.5,0.9 2.8,1.4 3.7,2.3 39.6,40.2 68.3,86.3 77,143.1 7.1,46.2 -6.4,86.6 -36.1,122 -19.5,23.2 -43.5,40.9 -70.3,56.7 32.9,-92.9 12.1,-170.3 -61,-234.1 z"
   id="path6"
   style="fill:#999999;fill-opacity:1;stroke:none" /><path
   d="m 18.29489,720.10278 c -5.76,4.17 -7.55,13.11 -3.77,20.46 3.58,6.75 6.56,8.34 16.68,8.34 14.1,0.2 37.94,5.56 50.25,11.52 6.95,3.38 20.86,11.92 30.79,18.87 44.1,31.58 77.86,41.91 122.75,37.14 31.98,-3.38 49.46,-10.53 84.62,-34.76 11.52,-7.95 25.42001,-16.68 30.79001,-19.27 29.2,-14.9 66.54,-17.08 100.51,-6.16 5.95999,1.99 22.63999,11.52 38.13999,21.85 48.47,32.77 65.15001,38.73 107.66001,38.73 41.32,0 61.57,-6.95 102.28999,-35.16 24.24,-16.68 36.75,-23.24 51.64,-27.61 24.63,-6.95 56.41,-5.76 80.84,2.78 6.35001,2.19 24.23001,12.51 39.52,22.84 40.52,27.21 54.03,32.97 87.8,36.75 21.25,2.38 27.41,0.8 31.78,-8.54 5.56,-11.52 -2.78,-23.24 -16.29,-23.24 -12.51,0 -31.98,-3.58 -44.29,-8.14 -5.96,-2.38 -24.24,-13.11 -40.32,-23.83 -43.3,-29 -61.97,-35.56 -103.29,-35.56 -40.12,0 -61.97,7.55 -101.1,34.56 -11.52,7.95 -26.42,17.28 -33.17,20.66 -30.39,15.29 -75.48,16.09 -106.86,1.79 -5.76,-2.78 -22.45,-12.91 -37.14,-23.04 -40.32,-27.21 -60.18,-33.97 -101.1,-33.97 -39.92,0 -61.77,7.55 -101.3,34.76 -11.52,7.95 -26.22,17.08 -32.97,20.46 -30.39,15.29 -75.68,16.09 -106.66,1.79 -5.76,-2.58 -22.84,-13.31 -38.34,-23.64 -37.14,-25.03 -60.18,-33.37 -91.97,-33.37 -8.55,0.01 -14.71,1 -17.49,2.99 z"
   id="path8-1"
   style="fill:#999999;fill-opacity:1;stroke-width:0.1" /><path
   d="m 18.294892,483.71481 c -5.76,4.17 -7.55,13.11 -3.77,20.46 3.58,6.75 6.56,8.34 16.68,8.34 14.1,0.2 37.94,5.56 50.25,11.52 6.95,3.38 20.859998,11.92 30.789998,18.87 44.1,31.58 77.86,41.91 122.75,37.14 31.98,-3.38 49.46,-10.53 84.62,-34.76 11.52,-7.95 25.42,-16.68 30.79,-19.27 29.2,-14.9 66.54,-17.08 100.51,-6.16 5.96,1.99 22.64,11.52 38.14,21.85 48.47,32.77 65.15,38.73 107.66,38.73 41.32,0 61.57,-6.95 102.29,-35.16 24.24,-16.68 36.75,-23.24 51.64,-27.61 24.63,-6.95 56.41,-5.76 80.84,2.78 6.35,2.19 24.23,12.51 39.52,22.84 40.52,27.21 54.03,32.97 87.8,36.75 21.25,2.38 27.41,0.8 31.78,-8.54 5.55998,-11.52 -2.78,-23.24 -16.29,-23.24 -12.51,0 -31.98,-3.58 -44.29,-8.14 -5.96,-2.38 -24.24,-13.11 -40.32,-23.83 -43.3,-29 -61.97,-35.56 -103.29,-35.56 -40.12,0 -61.97,7.55 -101.1,34.56 -11.52,7.95 -26.42,17.28 -33.17,20.66 -30.39,15.29 -75.48,16.09 -106.86,1.79 -5.76,-2.78 -22.45,-12.91 -37.14,-23.04 -40.32,-27.21 -60.18,-33.97 -101.1,-33.97 -39.92,0 -61.77,7.55 -101.3,34.76 -11.52,7.95 -26.22,17.08 -32.97,20.46 -30.39,15.29 -75.68,16.09 -106.66,1.79 -5.76,-2.58 -22.84,-13.31 -38.34,-23.64 -37.139998,-25.03 -60.179998,-33.37 -91.969998,-33.37 -8.55,0.01 -14.71,1 -17.49,2.99 z"
   id="path8-3"
   style="fill:#999999;fill-opacity:1;stroke-width:0.1" /></svg>
