<?xml version="1.0" encoding="UTF-8" standalone="no"?>
<svg
   xmlns:dc="http://purl.org/dc/elements/1.1/"
   xmlns:cc="http://creativecommons.org/ns#"
   xmlns:rdf="http://www.w3.org/1999/02/22-rdf-syntax-ns#"
   xmlns:svg="http://www.w3.org/2000/svg"
   xmlns="http://www.w3.org/2000/svg"
   xmlns:sodipodi="http://sodipodi.sourceforge.net/DTD/sodipodi-0.dtd"
   xmlns:inkscape="http://www.inkscape.org/namespaces/inkscape"
   version="1.1"
   x="0px"
   y="0px"
   viewBox="0 0 200 180"
   enable-background="new 0 0 1000 1000"
   xml:space="preserve"
   id="svg16"
   sodipodi:docname="pool.svg"
   inkscape:version="1.0.2-2 (e86c870879, 2021-01-15)"
   inkscape:export-filename="C:\Users\user\Desktop\icon_pool.png"
   inkscape:export-xdpi="96"
   inkscape:export-ydpi="96"
   width="200"
   height="180"><defs
   id="defs20" /><sodipodi:namedview
   pagecolor="#ffffff"
   bordercolor="#666666"
   borderopacity="1"
   objecttolerance="10"
   gridtolerance="10"
   guidetolerance="10"
   inkscape:pageopacity="0"
   inkscape:pageshadow="2"
   inkscape:window-width="1920"
   inkscape:window-height="1001"
   id="namedview18"
   showgrid="false"
   inkscape:zoom="1.66"
   inkscape:cx="205.64533"
   inkscape:cy="145.90195"
   inkscape:window-x="-9"
   inkscape:window-y="-9"
   inkscape:window-maximized="1"
   inkscape:current-layer="svg16"
   inkscape:document-rotation="0" />
<metadata
   id="metadata2"> Svg Vector Icons : http://www.onlinewebfonts.com/icon <rdf:RDF><cc:Work
     rdf:about=""><dc:format>image/svg+xml</dc:format><dc:type
       rdf:resource="http://purl.org/dc/dcmitype/StillImage" /><dc:title></dc:title></cc:Work></rdf:RDF></metadata>

<path
   d="m 4.2442192,113.33974 c -1.1322322,0.81969 -1.4840889,2.577 -0.7410616,4.02179 0.703714,1.32684 1.2894871,1.63937 3.2787561,1.63937 2.7716103,0.0393 7.4577933,1.09292 9.8775473,2.26446 1.366149,0.66441 4.10041,2.3431 6.052333,3.70924 8.668653,6.20763 15.304792,8.23817 24.128735,7.30055 6.286249,-0.66441 9.722258,-2.06986 16.633594,-6.83271 2.264464,-1.56272 4.99676,-3.27877 6.052331,-3.78787 5.739789,-2.92886 13.079642,-3.35738 19.757061,-1.21086 1.171546,0.39118 4.450302,2.26446 7.497113,4.29501 9.527642,6.44154 12.806402,7.61309 21.162502,7.61309 8.12222,0 12.10271,-1.36615 20.10695,-6.91134 4.76482,-3.27876 7.22389,-4.56824 10.15079,-5.42724 4.84147,-1.36616 11.0884,-1.13223 15.89057,0.54646 1.2482,0.43048 4.76285,2.45906 7.76837,4.48961 7.96493,5.34862 10.62058,6.48086 17.25868,7.22388 4.17706,0.46784 5.38792,0.15726 6.24692,-1.67869 1.09294,-2.26448 -0.54645,-4.56825 -3.20208,-4.56825 -2.45907,0 -6.28625,-0.7037 -8.706,-1.60005 -1.17155,-0.46784 -4.76481,-2.57702 -7.92563,-4.68423 -8.5114,-5.70048 -12.18132,-6.98996 -20.30352,-6.98996 -7.88631,0 -12.18132,1.48409 -19.87303,6.79339 -2.26447,1.56273 -5.19334,3.3967 -6.52017,4.0611 -5.9737,3.00553 -14.83695,3.16278 -21.00526,0.35186 -1.13224,-0.54646 -4.41295,-2.53771 -7.30054,-4.52892 -7.925629,-5.34862 -11.829472,-6.67743 -19.873039,-6.67743 -7.846999,0 -12.142012,1.48409 -19.91235,6.83271 -2.264465,1.56272 -5.154016,3.35738 -6.480851,4.02178 -5.973705,3.00553 -14.876274,3.16278 -20.965954,0.35186 -1.132233,-0.50715 -4.489616,-2.61633 -7.536421,-4.64687 -7.30054,-4.92009 -11.829469,-6.55948 -18.0783693,-6.55948 -1.6806571,0.002 -2.891517,0.19657 -3.4379765,0.58774 z"
   id="path8"
   style="fill:#999999;fill-opacity:1;stroke-width:0.0196568" /><path
   d="m 4.6555945,159.41162 c -0.8983153,0.35186 -1.7180051,2.45905 -1.4447751,3.66991 0.3518566,1.60006 1.4840888,2.18585 4.6861822,2.4984 6.0523334,0.54645 8.8239434,1.67869 15.4227334,6.24693 8.043567,5.54517 12.026037,6.91133 20.106951,6.95064 8.159543,0.0393 11.908097,-1.25017 20.106954,-6.83271 5.818415,-3.98248 7.263192,-4.72353 10.58126,-5.58253 3.31807,-0.89832 9.877548,-0.89832 13.118956,-0.0787 3.280721,0.859 5.232643,1.91261 11.674174,6.20762 4.10041,2.77161 6.24694,3.94315 8.66866,4.72353 4.17707,1.40546 8.78462,1.95192 12.92434,1.63939 6.5988,-0.54648 10.2294,-1.95193 17.18006,-6.63812 2.96818,-1.99123 6.09165,-3.98247 6.95066,-4.41098 2.73228,-1.40547 6.32555,-2.10919 10.65791,-2.14653 6.75604,0 9.84021,1.09292 17.21937,6.20761 6.91134,4.80217 11.04909,6.40223 17.76582,6.98802 2.96819,0.27322 3.2021,0.2339 4.25571,-0.70177 0.85901,-0.74302 1.13222,-1.28751 1.13222,-2.42171 0,-2.14653 -1.48407,-3.31807 -4.17707,-3.31807 -5.07538,-0.0393 -9.91686,-1.91261 -15.89057,-6.24693 -7.53444,-5.42726 -13.35286,-7.26123 -21.82691,-6.91134 -7.69172,0.31254 -10.34734,1.32683 -19.44255,7.45779 -7.22389,4.84148 -9.21511,5.50588 -16.32105,5.50588 -6.988,0 -9.1365,-0.74107 -16.20311,-5.50588 -9.60432,-6.48085 -12.181327,-7.37917 -21.083896,-7.37917 -5.232643,0 -6.441538,0.11794 -8.979231,0.89832 -3.553953,1.13224 -6.950649,2.92886 -11.245663,5.97371 -6.638104,4.76284 -10.620574,6.20762 -16.828194,6.20762 -6.520166,-0.0393 -10.502636,-1.44478 -17.0228,-6.13096 -6.642035,-4.76285 -13.122886,-7.1826 -19.0199294,-7.10397 -1.3661482,0 -2.6929818,0.11598 -2.9662121,0.23392 z"
   id="path10"
   style="fill:#999999;fill-opacity:1;stroke-width:0.0196568" /><path
   d="m 100.59484,34.075139 c -0.059,7.685813 -1.61186,14.762264 -6.74229,21.445582 0.275195,-4.265531 0.117941,-7.823412 -2.358818,-11.400952 -1.317006,6.329493 -4.560379,11.204382 -7.567871,16.236527 -3.302344,5.523562 -3.105776,11.341978 -0.845243,17.199712 0.255538,0.668324 0.511077,1.336658 0.746959,2.004993 0.01965,0.03933 -0.03932,0.117943 -0.176911,0.452111 -8.45243,-5.248374 -16.747604,-10.536057 -18.438089,-21.504557 -0.825586,-5.326996 0.412792,-10.418109 2.535729,-15.292999 1.356319,-3.08612 3.007491,-6.034641 4.304841,-9.140417 1.238379,-2.968179 2.181907,-6.034642 3.282687,-9.140417 2.181906,3.459598 2.417788,7.646499 2.889551,11.931684 C 87.149577,28.413976 93.105592,14.418328 93.577354,0.8747848 99.612,3.4301701 104.05444,7.6563845 107.7106,12.806468 c 3.65616,5.130429 5.99533,10.889874 7.70547,17.003142 2.98784,-2.437445 3.49891,-5.641503 2.22122,-13.425601 0.29485,0.176911 0.55039,0.275194 0.7273,0.452106 7.78409,7.902038 13.42561,16.963827 15.13575,28.128897 1.39563,9.081446 -1.25805,17.022798 -7.09611,23.98131 -3.83308,4.56038 -8.55072,8.039634 -13.81874,11.145414 6.46709,-18.261181 2.37848,-33.475551 -11.99065,-46.016597 z"
   id="path6"
   style="fill:#999999;fill-opacity:1;stroke:none;stroke-width:0.196568" /><path
   d="m 4.2442192,136.57291 c -1.1322322,0.81969 -1.4840889,2.57701 -0.7410616,4.02177 0.703714,1.32685 1.2894871,1.63939 3.2787561,1.63939 2.7716103,0.0393 7.4577933,1.09292 9.8775473,2.26446 1.366149,0.6644 4.10041,2.3431 6.052333,3.70924 8.668653,6.20762 15.304792,8.23818 24.128735,7.30055 6.286249,-0.6644 9.722258,-2.06986 16.633594,-6.83271 2.264464,-1.56272 4.996763,-3.27876 6.052333,-3.78787 5.739789,-2.92887 13.079642,-3.35739 19.757062,-1.21086 1.171543,0.39117 4.450299,2.26446 7.49711,4.29501 9.527642,6.44153 12.806402,7.61309 21.162512,7.61309 8.12221,0 12.1027,-1.36617 20.10694,-6.91134 4.76482,-3.27875 7.22389,-4.56823 10.15079,-5.42725 4.84147,-1.36615 11.0884,-1.13223 15.89057,0.54647 1.24821,0.43047 4.76285,2.45907 7.76837,4.48961 7.96493,5.34862 10.62058,6.48085 17.25868,7.22387 4.17706,0.46784 5.38792,0.15726 6.24692,-1.67868 1.09294,-2.26446 -0.54645,-4.56824 -3.20208,-4.56824 -2.45907,0 -6.28625,-0.70372 -8.706,-1.60007 -1.17155,-0.46783 -4.76481,-2.57701 -7.92563,-4.68422 -8.5114,-5.70048 -12.18132,-6.98995 -20.30352,-6.98995 -7.88631,0 -12.18132,1.48407 -19.87303,6.79338 -2.26447,1.56271 -5.19334,3.39671 -6.52017,4.06109 -5.9737,3.00553 -14.83695,3.16279 -21.00526,0.35187 -1.13224,-0.54647 -4.41295,-2.53769 -7.30054,-4.52893 -7.925629,-5.34863 -11.829472,-6.67741 -19.873039,-6.67741 -7.846999,0 -12.142012,1.48407 -19.91235,6.83269 -2.264465,1.56272 -5.154016,3.3574 -6.480851,4.02178 -5.973705,3.00553 -14.876274,3.16279 -20.965954,0.35187 -1.132233,-0.50715 -4.489616,-2.61632 -7.536421,-4.64687 -7.30054,-4.9201 -11.829469,-6.55947 -18.0783693,-6.55947 -1.6806571,0.002 -2.8915159,0.19655 -3.4379765,0.58773 z"
   id="path8-1"
   style="fill:#999999;fill-opacity:1;stroke-width:0.0196568" /><path
   d="m 4.2442202,90.106573 c -1.1322322,0.819688 -1.4840888,2.577014 -0.7410616,4.021785 0.703713,1.326837 1.2894871,1.639383 3.2787551,1.639383 2.7716103,0.03933 7.4577933,1.092918 9.8775483,2.264448 1.366149,0.664413 4.100409,2.343101 6.052332,3.709261 8.668653,6.20761 15.304792,8.23816 24.128735,7.30053 6.286249,-0.66439 9.722258,-2.06987 16.633594,-6.83271 2.264464,-1.56271 4.99676,-3.27875 6.052331,-3.787873 5.739789,-2.92885 13.079642,-3.357376 19.757061,-1.210858 1.171546,0.391175 4.450302,2.264479 7.497113,4.295021 9.527642,6.44152 12.806402,7.61307 21.162502,7.61307 8.12222,0 12.10271,-1.36615 20.10695,-6.91132 4.76482,-3.278757 7.22389,-4.568244 10.15079,-5.427246 4.84147,-1.366154 11.0884,-1.132233 15.89057,0.546455 1.2482,0.430485 4.76285,2.459069 7.76837,4.489621 7.96493,5.34861 10.62058,6.48084 17.25868,7.22387 4.17706,0.46783 5.38792,0.15726 6.24692,-1.67868 1.09293,-2.26448 -0.54645,-4.56826 -3.20208,-4.56826 -2.45907,0 -6.28625,-0.7037 -8.706,-1.60005 -1.17155,-0.46783 -4.76481,-2.577014 -7.92563,-4.684217 -8.5114,-5.700475 -12.18132,-6.989972 -20.30352,-6.989972 -7.88631,0 -12.18132,1.4841 -19.87303,6.793406 -2.26447,1.562714 -5.19334,3.39668 -6.52017,4.061083 -5.9737,3.00552 -14.83695,3.16279 -21.00526,0.35187 -1.13224,-0.54647 -4.41295,-2.537692 -7.30054,-4.528934 -7.925629,-5.348621 -11.829472,-6.677425 -19.873039,-6.677425 -7.846999,0 -12.142012,1.4841 -19.91235,6.832705 -2.264465,1.562725 -5.154016,3.357381 -6.480851,4.021784 -5.973705,3.00552 -14.876274,3.16279 -20.965954,0.35187 -1.132233,-0.50715 -4.489616,-2.61632 -7.536421,-4.646881 -7.30054,-4.920094 -11.829469,-6.559478 -18.0783693,-6.559478 -1.6806562,0.0022 -2.8915159,0.19657 -3.4379755,0.587742 z"
   id="path8-3"
   style="fill:#999999;fill-opacity:1;stroke-width:0.0196568" /></svg>
