<?xml version="1.0" encoding="UTF-8" standalone="no"?>
<svg
   xmlns:dc="http://purl.org/dc/elements/1.1/"
   xmlns:cc="http://creativecommons.org/ns#"
   xmlns:rdf="http://www.w3.org/1999/02/22-rdf-syntax-ns#"
   xmlns:svg="http://www.w3.org/2000/svg"
   xmlns="http://www.w3.org/2000/svg"
   xmlns:sodipodi="http://sodipodi.sourceforge.net/DTD/sodipodi-0.dtd"
   xmlns:inkscape="http://www.inkscape.org/namespaces/inkscape"
   version="1.1"
   x="0px"
   y="0px"
   viewBox="0 0 200 180"
   enable-background="new 0 0 1000 1000"
   xml:space="preserve"
   id="svg16"
   sodipodi:docname="series.svg"
   inkscape:version="1.0.2-2 (e86c870879, 2021-01-15)"
   inkscape:export-filename="C:\Users\user\Desktop\series.png"
   inkscape:export-xdpi="96"
   inkscape:export-ydpi="96"
   width="200"
   height="180"><defs
   id="defs20"><inkscape:path-effect
     effect="fillet_chamfer"
     id="path-effect976"
     is_visible="true"
     lpeversion="1"
     satellites_param="F,0,0,1,0,0,0,1 @ F,0,0,1,0,17.890653,0,1 @ F,0,0,1,0,14.056942,0,1 @ F,0,0,1,0,0,0,1"
     unit="px"
     method="auto"
     mode="F"
     radius="0"
     chamfer_steps="1"
     flexible="false"
     use_knot_distance="true"
     apply_no_radius="true"
     apply_with_radius="true"
     only_selected="false"
     hide_knots="false" /><inkscape:path-effect
     effect="fillet_chamfer"
     id="path-effect1906"
     is_visible="true"
     lpeversion="1"
     satellites_param="F,0,0,1,0,0,0,1 @ F,0,0,1,0,139.75904,0,1 @ F,0,0,1,0,118.07229,0,1 @ F,0,0,1,0,0,0,1"
     unit="px"
     method="auto"
     mode="F"
     radius="0"
     chamfer_steps="1"
     flexible="false"
     use_knot_distance="true"
     apply_no_radius="true"
     apply_with_radius="true"
     only_selected="false"
     hide_knots="false" /><marker
     style="overflow:visible"
     id="marker1567"
     refX="0"
     refY="0"
     orient="auto"
     inkscape:stockid="TriangleOutL"
     inkscape:isstock="true"><path
       transform="scale(0.8)"
       style="fill:#999999;fill-opacity:1;fill-rule:evenodd;stroke:#999999;stroke-width:1pt;stroke-opacity:1"
       d="M 5.77,0 -2.88,5 V -5 Z"
       id="path1565" /></marker><marker
     style="overflow:visible"
     id="TriangleOutL"
     refX="0"
     refY="0"
     orient="auto"
     inkscape:stockid="TriangleOutL"
     inkscape:isstock="true"
     inkscape:collect="always"><path
       transform="scale(0.8)"
       style="fill:#999999;fill-opacity:1;fill-rule:evenodd;stroke:#999999;stroke-width:1pt;stroke-opacity:1"
       d="M 5.77,0 -2.88,5 V -5 Z"
       id="path999" /></marker><marker
     style="overflow:visible"
     id="Arrow1Lend"
     refX="0"
     refY="0"
     orient="auto"
     inkscape:stockid="Arrow1Lend"
     inkscape:isstock="true"><path
       transform="matrix(-0.8,0,0,-0.8,-10,0)"
       style="fill:#b3b3b3;fill-opacity:1;fill-rule:evenodd;stroke:#b3b3b3;stroke-width:1pt;stroke-opacity:1"
       d="M 0,0 5,-5 -12.5,0 5,5 Z"
       id="path860" /></marker><marker
     style="overflow:visible"
     id="TriangleOutL-3"
     refX="0"
     refY="0"
     orient="auto"
     inkscape:stockid="TriangleOutL"
     inkscape:isstock="true"><path
       transform="scale(0.8)"
       style="fill:#b3b3b3;fill-opacity:1;fill-rule:evenodd;stroke:#b3b3b3;stroke-width:1pt;stroke-opacity:1"
       d="M 5.77,0 -2.88,5 V -5 Z"
       id="path999-2" /></marker></defs><sodipodi:namedview
   pagecolor="#ffffff"
   bordercolor="#666666"
   borderopacity="1"
   objecttolerance="10"
   gridtolerance="10"
   guidetolerance="10"
   inkscape:pageopacity="0"
   inkscape:pageshadow="2"
   inkscape:window-width="1920"
   inkscape:window-height="1001"
   id="namedview18"
   showgrid="false"
   inkscape:zoom="2.3475946"
   inkscape:cx="131.05105"
   inkscape:cy="135.28978"
   inkscape:window-x="-9"
   inkscape:window-y="-9"
   inkscape:window-maximized="1"
   inkscape:current-layer="svg16"
   inkscape:document-rotation="0"
   fit-margin-top="0"
   fit-margin-left="0"
   fit-margin-right="0"
   fit-margin-bottom="0" />
<metadata
   id="metadata2"> Svg Vector Icons : http://www.onlinewebfonts.com/icon <rdf:RDF><cc:Work
     rdf:about=""><dc:format>image/svg+xml</dc:format><dc:type
       rdf:resource="http://purl.org/dc/dcmitype/StillImage" /><dc:title></dc:title></cc:Work></rdf:RDF></metadata>

<path
   d="m 1.2472713,82.707226 c -0.3952319,0.286131 -0.5180557,0.899566 -0.2586848,1.403896 0.2456476,0.463162 0.4501252,0.572264 1.1445258,0.572264 0.9674947,0.01373 2.6033156,0.381507 3.4479865,0.790464 0.4768858,0.231924 1.4313434,0.81791 2.1127066,1.294797 3.0259936,2.166913 5.3424926,2.875722 8.4226936,2.548421 2.19436,-0.231925 3.393779,-0.722534 5.806341,-2.385113 0.790464,-0.545505 1.744235,-1.144529 2.112706,-1.322244 2.003606,-1.022388 4.565752,-1.171974 6.89666,-0.422678 0.408955,0.136547 1.55348,0.790463 2.617039,1.499272 3.325849,2.248569 4.470374,2.657525 7.387267,2.657525 2.83524,0 4.224728,-0.476887 7.018797,-2.412563 1.66327,-1.144524 2.521664,-1.594651 3.543366,-1.894506 1.690026,-0.476884 3.870663,-0.395233 5.546968,0.190756 0.435716,0.150269 1.662582,0.858394 2.711731,1.567203 2.780344,1.867058 3.707356,2.26229 6.024541,2.521661 1.458106,0.163307 1.880784,0.05489 2.180639,-0.585986 0.381507,-0.790464 -0.190757,-1.594649 -1.117766,-1.594649 -0.858394,0 -2.194362,-0.245649 -3.039032,-0.558539 -0.408957,-0.163311 -1.663269,-0.899566 -2.766623,-1.635137 -2.971102,-1.989881 -4.252174,-2.440009 -7.087415,-2.440009 -2.752898,0 -4.252174,0.518059 -6.937142,2.371392 -0.790463,0.545505 -1.812852,1.185696 -2.276014,1.41762 -2.085262,1.049148 -5.179187,1.104044 -7.332375,0.122823 -0.395231,-0.190753 -1.540443,-0.885841 -2.548423,-1.580927 -2.766623,-1.867058 -4.12935,-2.330908 -6.937143,-2.330908 -2.739176,0 -4.23845,0.518059 -6.950867,2.385117 -0.790464,0.545501 -1.799128,1.171971 -2.26229,1.403895 -2.08526,1.049148 -5.192908,1.104044 -7.318652,0.122823 C 10.99358,86.236867 9.821607,85.500609 8.75805,84.7918 6.2096274,83.074326 4.6286998,82.502061 2.4473765,82.502061 c -0.5866723,6.61e-4 -1.0093509,0.06862 -1.2001052,0.205165 z"
   id="path8"
   style="fill:#999999;fill-opacity:1;stroke-width:0.00686166" /><path
   d="m 1.3908713,98.789678 c -0.3135781,0.122826 -0.5997095,0.858394 -0.5043323,1.281072 0.1228238,0.55854 0.5180557,0.76302 1.6358209,0.87212 2.1127067,0.19075 3.0802013,0.58599 5.3836615,2.18064 2.8077936,1.93567 4.1979666,2.41256 7.0187976,2.42628 2.848277,0.0137 4.156796,-0.4364 7.018796,-2.38511 2.031053,-1.39018 2.535386,-1.64886 3.693634,-1.94872 1.15825,-0.31357 3.447987,-0.31357 4.579476,-0.0274 1.145212,0.29986 1.826575,0.66765 4.075143,2.16692 1.431342,0.96749 2.180635,1.37645 3.025995,1.64886 1.458101,0.49061 3.066478,0.68136 4.511545,0.57226 2.30346,-0.19075 3.570808,-0.68136 5.997093,-2.31718 1.036113,-0.69509 2.126431,-1.39018 2.426286,-1.53976 0.953771,-0.49061 2.208081,-0.73626 3.720395,-0.74929 2.358353,0 3.434947,0.3815 6.010817,2.16691 2.412563,1.6763 3.856942,2.23485 6.201574,2.43932 1.03611,0.0954 1.117766,0.0817 1.485548,-0.24496 0.299855,-0.25937 0.395232,-0.44944 0.395232,-0.84536 0,-0.74929 -0.518055,-1.15825 -1.458101,-1.15825 -1.771685,-0.0137 -3.461711,-0.66764 -5.546972,-2.18063 -2.630075,-1.894511 -4.661128,-2.534703 -7.619191,-2.412566 -2.684972,0.109102 -3.611983,0.463163 -6.786873,2.603316 -2.521664,1.69003 -3.216748,1.92195 -5.69724,1.92195 -2.439322,0 -3.189303,-0.25868 -5.656071,-1.92195 -3.35261,-2.26229 -4.252174,-2.57587 -7.359822,-2.57587 -1.826576,0 -2.248567,0.04117 -3.134409,0.31358 -1.240589,0.395232 -2.426285,1.02239 -3.925558,2.08526 -2.317184,1.66258 -3.707358,2.16691 -5.874272,2.16691 -2.276013,-0.0137 -3.666187,-0.50433 -5.942202,-2.14015 -2.3185551,-1.662581 -4.580846,-2.50725 -6.6393454,-2.479804 -0.4768857,0 -0.9400481,0.04048 -1.0354253,0.08165 z"
   id="path10"
   style="fill:#999999;fill-opacity:1;stroke-width:0.00686166" /><path
   d="m 34.880684,55.03808 c -0.02057,2.682912 -0.562657,5.153111 -2.353551,7.486077 0.09606,-1.488981 0.04117,-2.730942 -0.823399,-3.979765 -0.459732,2.209456 -1.591907,3.911149 -2.641742,5.667734 -1.152759,1.928129 -1.084143,3.959181 -0.295051,6.003957 0.0892,0.233297 0.178403,0.466594 0.260743,0.69989 0.0069,0.01372 -0.01372,0.04117 -0.06175,0.157818 -2.950515,-1.832064 -5.846138,-3.677852 -6.436241,-7.506661 -0.28819,-1.85951 0.144095,-3.636682 0.885154,-5.338375 0.473455,-1.077282 1.049835,-2.106531 1.502705,-3.190675 0.432285,-1.03611 0.761645,-2.10653 1.145898,-3.190673 0.761645,1.207653 0.843985,2.669188 1.008665,4.165031 3.11519,-2.950517 5.194275,-7.836022 5.358954,-12.563709 2.106532,0.892017 3.657269,2.367274 4.933538,4.165031 1.276269,1.790894 2.092808,3.801363 2.689772,5.93534 1.042973,-0.850846 1.221375,-1.969298 0.775368,-4.686517 0.102924,0.06175 0.192127,0.09606 0.253881,0.157818 2.717221,2.758389 4.686517,5.921617 5.283483,9.819042 0.487178,3.170089 -0.439146,5.942202 -2.477062,8.371231 -1.338023,1.591907 -2.984824,2.806421 -4.823748,3.890564 2.257486,-6.374487 0.830261,-11.685415 -4.185617,-16.063158 z"
   id="path6"
   style="fill:#999999;fill-opacity:1;stroke:none;stroke-width:0.0686166" /><path
   d="m 1.2472713,90.8173 c -0.3952319,0.286134 -0.5180557,0.899566 -0.2586848,1.403899 0.2456476,0.463163 0.4501252,0.572261 1.1445258,0.572261 0.9674947,0.01373 2.6033156,0.38151 3.4479865,0.790464 0.4768858,0.231924 1.4313434,0.81791 2.1127066,1.294797 3.0259936,2.166913 5.3424926,2.875725 8.4226936,2.54842 2.19436,-0.231921 3.393779,-0.722533 5.806341,-2.385113 0.790464,-0.545501 1.744235,-1.144524 2.112707,-1.322243 2.003606,-1.022389 4.565752,-1.171971 6.89666,-0.422679 0.408954,0.136548 1.553479,0.790465 2.617038,1.499273 3.325849,2.248568 4.470374,2.657525 7.38727,2.657525 2.835237,0 4.224725,-0.476887 7.018794,-2.412562 1.66327,-1.144525 2.521664,-1.59465 3.543366,-1.894505 1.690026,-0.476887 3.870663,-0.395231 5.546968,0.190754 0.435716,0.15027 1.662582,0.858394 2.711731,1.567203 2.780344,1.867061 3.707356,2.262293 6.024541,2.521664 1.458106,0.163307 1.880784,0.05489 2.180639,-0.585989 0.381507,-0.790464 -0.190757,-1.594649 -1.117766,-1.594649 -0.858394,0 -2.194362,-0.24565 -3.039032,-0.558539 -0.408957,-0.163307 -1.663269,-0.899565 -2.766623,-1.635137 -2.971102,-1.989881 -4.252174,-2.440005 -7.087415,-2.440005 -2.752898,0 -4.252174,0.518054 -6.937142,2.371391 -0.790463,0.545501 -1.812852,1.185696 -2.276014,1.417617 -2.085262,1.049151 -5.179187,1.104044 -7.332375,0.122827 -0.395231,-0.190754 -1.540443,-0.885841 -2.548423,-1.580929 -2.766623,-1.86706 -4.12935,-2.330906 -6.937143,-2.330906 -2.739176,0 -4.23845,0.518054 -6.950867,2.385112 -0.790464,0.545505 -1.799128,1.171975 -2.26229,1.403896 -2.08526,1.049151 -5.192908,1.104044 -7.318652,0.122827 C 10.99358,94.346942 9.821607,93.610683 8.75805,92.901875 6.2096274,91.184399 4.6286998,90.612139 2.4473765,90.612139 1.8607042,90.612799 1.4380256,90.680759 1.2472713,90.8173 Z"
   id="path8-1"
   style="fill:#999999;fill-opacity:1;stroke-width:0.00686166" /><path
   d="m 1.2472714,74.597151 c -0.3952319,0.286131 -0.5180557,0.899564 -0.2586847,1.403896 0.2456476,0.463163 0.4501252,0.572262 1.1445257,0.572262 0.9674947,0.01373 2.6033155,0.38151 3.4479867,0.790464 0.4768855,0.231924 1.4313431,0.817913 2.1127063,1.294797 3.0259936,2.166913 5.3424926,2.875725 8.4226936,2.548423 2.19436,-0.231924 3.393779,-0.722533 5.806341,-2.385116 0.790464,-0.545501 1.744235,-1.144524 2.112706,-1.322244 2.003606,-1.022384 4.565752,-1.17197 6.89666,-0.422678 0.408955,0.136548 1.55348,0.790465 2.617039,1.499276 3.325849,2.248565 4.470374,2.657522 7.387267,2.657522 2.83524,0 4.224728,-0.476884 7.018797,-2.412562 1.66327,-1.144525 2.521664,-1.59465 3.543366,-1.894505 1.690026,-0.476885 3.870663,-0.395231 5.546968,0.190753 0.435716,0.150274 1.662582,0.858395 2.711731,1.567207 2.780344,1.867058 3.707356,2.26229 6.024541,2.521661 1.458106,0.163307 1.880784,0.05489 2.180639,-0.585986 0.381507,-0.790463 -0.190757,-1.594652 -1.117766,-1.594652 -0.858394,0 -2.194362,-0.245647 -3.039032,-0.558539 -0.408957,-0.163307 -1.663269,-0.899565 -2.766623,-1.635134 -2.971102,-1.989884 -4.252174,-2.440009 -7.087415,-2.440009 -2.752898,0 -4.252174,0.518056 -6.937142,2.371392 -0.790463,0.545501 -1.812852,1.185696 -2.276014,1.41762 -2.085262,1.049148 -5.179187,1.10404 -7.332375,0.122824 -0.395231,-0.190754 -1.540443,-0.885841 -2.548423,-1.580929 -2.766623,-1.867059 -4.12935,-2.330907 -6.937143,-2.330907 -2.739176,0 -4.23845,0.518056 -6.950867,2.385113 -0.790464,0.545505 -1.799128,1.171975 -2.26229,1.403899 -2.08526,1.049148 -5.192908,1.10404 -7.318652,0.122824 C 10.99358,78.126791 9.821607,77.390536 8.75805,76.681724 6.2096274,74.96425 4.6286998,74.391987 2.4473767,74.391987 c -0.5866724,6.94e-4 -1.009351,0.06862 -1.2001053,0.205164 z"
   id="path8-3"
   style="fill:#999999;fill-opacity:1;stroke-width:0.00686166" /><g
   id="g867"
   transform="matrix(0.06861665,0,0,0.06861665,130.64954,40.219755)"><path
     d="m 963.7,569.1 c -9,-9.5 -17.5,-18.5 -25.5,-26.8 4.1,-10.9 9.4,-21 11.7,-31.8 4.8,-22 -2.9,-41.3 -18.6,-56.4 -13.2,-12.7 -30.8,-16 -48.7,-16.1 -49,-0.1 -97.9,0 -146.9,0 -205,0 -410,0 -615.1,0 -29.9,0 -57.4,-8.1 -79.5,-27.9 -10.5,-9.4 -19.2,-22.8 -24,-36 -14.3,-39.9 -7,-77.7 21.1,-109 11.1,-12.3 26.6,-23.1 45.1,-25 19.2,-2 38.4,-4.8 57.6,-4.8 245.6,-0.3 491.2,0.2 736.7,-1 18.6,-0.1 39.6,-7.6 54.9,-18.3 16.4,-11.4 21,-32.6 17.5,-53.5 -6,-36.2 -31,-52.8 -66.9,-52.9 -164.1,-0.6 -328.2,0 -492.3,0.2 -118.6,0.2 -237.3,0.2 -356.1,0.2 -7.9,0 -15.9,0 -24.4,0 0,-13.2 0,-25.4 0,-39 5.2,0 9.8,0 14.4,0 284.3,0 568.6,0.1 853,-0.1 30.2,0 58.6,6.7 80.9,27.2 15.2,13.9 24.8,32.3 29.1,53.7 7.2,35.6 -2.6,67 -26,92 -21,22.5 -50.8,30.4 -81.8,30.4 -131.2,0 -262.4,0 -393.6,0 -121.7,0 -243.4,-0.1 -365.1,0.1 -15.6,0 -30.7,2.2 -45,10.6 -19,11.2 -29.7,40.7 -26.2,60.8 5.6,32.8 28.7,50.3 60.3,52.8 4.4,0.3 8.8,0.2 13.1,0.2 251.1,0 502.1,0 753.2,0 30.4,0 59.3,6.5 82,27.3 16.1,14.8 26.1,34.3 29.7,57 5.1,32.3 -3.7,60.1 -24.6,86.1 z"
     id="path4"
     style="fill:#999999;fill-opacity:1;stroke:none" /><path
     d="m 787.9,695.3 c -0.3,39.1 -8.2,75.1 -34.3,109.1 1.4,-21.7 0.6,-39.8 -12,-58 -6.7,32.2 -23.2,57 -38.5,82.6 -16.8,28.1 -15.8,57.7 -4.3,87.5 1.3,3.4 2.6,6.8 3.8,10.2 0.1,0.2 -0.2,0.6 -0.9,2.3 -43,-26.7 -85.2,-53.6 -93.8,-109.4 -4.2,-27.1 2.1,-53 12.9,-77.8 6.9,-15.7 15.3,-30.7 21.9,-46.5 6.3,-15.1 11.1,-30.7 16.7,-46.5 11.1,17.6 12.3,38.9 14.7,60.7 45.4,-43 75.7,-114.2 78.1,-183.1 30.7,13 53.3,34.5 71.9,60.7 18.6,26.1 30.5,55.4 39.2,86.5 15.2,-12.4 17.8,-28.7 11.3,-68.3 1.5,0.9 2.8,1.4 3.7,2.3 39.6,40.2 68.3,86.3 77,143.1 7.1,46.2 -6.4,86.6 -36.1,122 -19.5,23.2 -43.5,40.9 -70.3,56.7 32.9,-92.9 12.1,-170.3 -61,-234.1 z"
     id="path6-7"
     style="fill:#999999;fill-opacity:1;stroke:none" /><path
     d="m 619.2,562.7 c -10.5,10.4 -21.6,20.2 -31.2,31.4 -5,5.8 -9.4,8.5 -17.2,8.5 -150.9,-0.2 -301.8,-0.2 -452.7,-0.1 -14.6,0 -28.3,2.9 -41.8,10.3 -18.7,10.2 -29.8,41.8 -26.4,60.7 6.5,36.1 31.7,53.4 70,53.4 132.3,0.3 264.6,0.1 396.8,0.1 4.7,0 9.4,0 16.1,0 -2.9,12.7 -5,24.3 -8.6,35.5 -0.7,2.2 -7.3,3.5 -11.2,3.5 -50.4,0.2 -100.9,0.2 -151.3,0.2 -78.6,0 -157.1,-0.1 -235.7,0 -31.2,0 -60.8,-6.2 -84.2,-27.5 -15.5,-14.2 -25.2,-33 -29.4,-54.7 -6.9,-35.3 3.2,-66 26,-91 14.7,-16.2 35.6,-26.4 59,-27.9 10.2,-0.6 20.3,-2.3 30.5,-2.3 160.8,-0.1 321.6,-0.1 482.3,-0.1 3.6,0 7.3,0 9,0 z"
     id="path8-9"
     style="fill:#999999;fill-opacity:1;stroke:none" /><path
     d="m 10.1,928.6 c 0,-12.8 0,-24.7 0,-38.5 4.2,0 8,0 11.9,0 168.5,0 337,0 505.4,-0.1 7.3,0 11.9,1.6 15.6,8.5 5.6,10.1 12.8,19.3 20.1,30.1 -184.8,0 -368.3,0 -553,0 z"
     id="path10-8"
     style="fill:#999999;fill-opacity:1;stroke:none" /></g><path
   style="fill:#999999;fill-opacity:1;stroke:#999999;stroke-width:2.572;stroke-linecap:round;stroke-linejoin:miter;stroke-miterlimit:2.5;stroke-dasharray:none;stroke-dashoffset:200;stroke-opacity:1;marker-end:url(#TriangleOutL)"
   d="M 79.961093,74.538372 H 115.9706"
   id="path855" /><path
   style="fill:none;fill-opacity:1;stroke:#999999;stroke-width:2.572;stroke-linecap:butt;stroke-linejoin:bevel;stroke-miterlimit:2.5;stroke-dasharray:none;stroke-opacity:1;marker-end:url(#marker1567)"
   d="m 166.38623,115.87682 v 2.5012 a 17.890653,17.890653 135 0 1 -17.89065,17.89065 H 47.408678 A 14.207534,14.207534 44.694734 0 1 33.201951,122.21253 l -0.01556,-1.45991"
   id="path1551"
   sodipodi:nodetypes="cccc"
   inkscape:path-effect="#path-effect976"
   inkscape:original-d="m 166.38623,115.87682 v 20.39185 H 33.351736 l -0.165342,-15.51605" /></svg>
