<?xml version="1.0" encoding="UTF-8" standalone="no"?>
<svg
   xmlns:dc="http://purl.org/dc/elements/1.1/"
   xmlns:cc="http://creativecommons.org/ns#"
   xmlns:rdf="http://www.w3.org/1999/02/22-rdf-syntax-ns#"
   xmlns:svg="http://www.w3.org/2000/svg"
   xmlns="http://www.w3.org/2000/svg"
   xmlns:sodipodi="http://sodipodi.sourceforge.net/DTD/sodipodi-0.dtd"
   xmlns:inkscape="http://www.inkscape.org/namespaces/inkscape"
   version="1.1"
   x="0px"
   y="0px"
   viewBox="0 0 80 80"
   enable-background="new 0 0 1000 1000"
   xml:space="preserve"
   id="svg10"
   sodipodi:docname="usb_icon.svg"
   width="80"
   height="80"
   inkscape:version="1.0.2-2 (e86c870879, 2021-01-15)"
   inkscape:export-filename="..\icon_usb.png"
   inkscape:export-xdpi="96"
   inkscape:export-ydpi="96"><defs
   id="defs14" /><sodipodi:namedview
   pagecolor="#ffffff"
   bordercolor="#666666"
   borderopacity="1"
   objecttolerance="10"
   gridtolerance="10"
   guidetolerance="10"
   inkscape:pageopacity="0"
   inkscape:pageshadow="2"
   inkscape:window-width="1920"
   inkscape:window-height="1001"
   id="namedview12"
   showgrid="false"
   inkscape:zoom="9.390378"
   inkscape:cx="55.667743"
   inkscape:cy="40.535574"
   inkscape:window-x="-9"
   inkscape:window-y="-9"
   inkscape:window-maximized="1"
   inkscape:current-layer="svg10"
   inkscape:document-rotation="0" />
<metadata
   id="metadata2"> Svg Vector Icons : http://www.onlinewebfonts.com/icon <rdf:RDF><cc:Work
     rdf:about=""><dc:format>image/svg+xml</dc:format><dc:type
       rdf:resource="http://purl.org/dc/dcmitype/StillImage" /><dc:title /></cc:Work></rdf:RDF></metadata>
<g
   id="g8"
   transform="matrix(0,0.08070305,-0.08070305,0,80.318825,-2.5244634)"><g
     transform="matrix(0.1,0,0,-0.1,0,511)"
     id="g6"><path
       d="m 4643.7,4379.4 -366.7,-635.2 254.6,-7 256.9,-7 V 974.4 -1783.7 l -226.5,193.9 c -859.4,733.3 -1275.1,1135 -1312.5,1275.1 -14,51.4 -25.7,338.6 -25.7,684.3 V 965 l 107.4,56 c 357.3,191.5 443.7,682 170.5,992.6 -147.1,168.2 -249.9,212.5 -488.1,212.5 -228.9,0 -329.3,-42 -469.4,-191.5 -119.1,-123.8 -165.8,-226.5 -179.8,-394.7 -18.7,-254.6 95.7,-478.8 310.6,-604.9 l 100.4,-60.7 9.4,-681.9 c 7,-679.6 7,-682 67.7,-810.4 109.8,-228.9 429.7,-558.2 1165.4,-1188.7 172.8,-149.5 418,-355 541.8,-457.8 l 228.9,-186.8 v -121.5 c 0,-119.1 -2.3,-121.4 -86.4,-149.5 -378.3,-121.4 -665.6,-425 -766,-803.4 -151.8,-586.2 245.2,-1214.4 847.8,-1340.5 838.4,-175.2 1553.1,644.6 1270.5,1452.6 -109.8,310.6 -359.7,553.5 -686.6,675 l -135.4,49 v 684.3 684.3 l 369,308.3 C 6378.9,-256.4 6909,243.4 7058.5,458.2 7182.3,638 7194,715.1 7194,1378.4 v 602.5 h 221.9 221.9 v 653.9 653.9 H 6983.9 6330 v -653.9 -653.9 h 210 210.2 v -588.5 c 0,-562.8 -2.3,-595.5 -49,-672.6 C 6610.1,570.3 5991.2,-8.9 5379.3,-518 l -147.1,-121.4 v 2186 2183.6 l 256.9,7 256.9,7 -364.3,630.6 c -200.8,348 -366.6,632.9 -369,635.2 -2.4,2.3 -168.2,-282.6 -369,-630.6 z"
       id="path4" /></g></g>
</svg>
