<?xml version="1.0" encoding="UTF-8" standalone="no"?>
<svg
   xmlns:dc="http://purl.org/dc/elements/1.1/"
   xmlns:cc="http://creativecommons.org/ns#"
   xmlns:rdf="http://www.w3.org/1999/02/22-rdf-syntax-ns#"
   xmlns:svg="http://www.w3.org/2000/svg"
   xmlns="http://www.w3.org/2000/svg"
   xmlns:sodipodi="http://sodipodi.sourceforge.net/DTD/sodipodi-0.dtd"
   xmlns:inkscape="http://www.inkscape.org/namespaces/inkscape"
   version="1.1"
   x="0px"
   y="0px"
   viewBox="0 0 80 80"
   enable-background="new 0 0 1000 1000"
   xml:space="preserve"
   id="svg8"
   sodipodi:docname="warning.svg"
   width="80"
   height="80"
   inkscape:version="1.0.2-2 (e86c870879, 2021-01-15)"
   inkscape:export-filename="..\warning.png"
   inkscape:export-xdpi="96"
   inkscape:export-ydpi="96"><defs
   id="defs12" /><sodipodi:namedview
   pagecolor="#ffffff"
   bordercolor="#666666"
   borderopacity="1"
   objecttolerance="10"
   gridtolerance="10"
   guidetolerance="10"
   inkscape:pageopacity="0"
   inkscape:pageshadow="2"
   inkscape:window-width="1920"
   inkscape:window-height="1001"
   id="namedview10"
   showgrid="false"
   inkscape:zoom="9.390378"
   inkscape:cx="52.784031"
   inkscape:cy="41.347088"
   inkscape:window-x="-9"
   inkscape:window-y="-9"
   inkscape:window-maximized="1"
   inkscape:current-layer="svg8"
   inkscape:document-rotation="0" />
<metadata
   id="metadata2"> Svg Vector Icons : http://www.onlinewebfonts.com/icon <rdf:RDF><cc:Work
     rdf:about=""><dc:format>image/svg+xml</dc:format><dc:type
       rdf:resource="http://purl.org/dc/dcmitype/StillImage" /><dc:title /></cc:Work></rdf:RDF></metadata>
<g
   id="g6"
   transform="matrix(0.08028309,0,0,0.08028309,-0.25017806,-0.37930589)"
   style="fill:#ff4d00;fill-opacity:1"><path
     d="M 868,957.3 H 132.1 C 82.8,957.3 43.1,937.8 23.3,903.8 3.5,869.8 5.9,825.4 29.9,782 L 401.2,111.4 c 24.2,-43.7 60.1,-68.8 98.6,-68.8 38.5,0 74.4,25 98.6,68.7 L 970,782.1 c 24,43.4 26.5,87.8 6.7,121.8 -19.8,34 -59.4,53.4 -108.7,53.4 z M 499.8,113.1 c -12.2,0 -26.2,12.2 -37.6,32.7 L 90.9,816.4 c -11.6,21 -14.4,40 -7.4,51.9 7,11.9 24.7,18.7 48.5,18.7 h 736 c 23.9,0 41.6,-6.8 48.5,-18.7 6.9,-11.9 4.2,-30.8 -7.4,-51.8 L 537.4,145.7 C 526.1,125.3 512,113.1 499.8,113.1 Z m 0.2,526.7 c -19.3,0 -34.9,-15.7 -34.9,-35.2 V 287.8 c 0,-19.4 15.6,-35.2 34.9,-35.2 19.3,0 34.9,15.8 34.9,35.2 v 316.8 c 0,19.5 -15.6,35.2 -34.9,35.2 z m -0.2,172 c 30.1,0 54.4,-24.6 54.4,-54.9 0,-30.3 -24.4,-54.9 -54.4,-54.9 -30.1,0 -54.4,24.6 -54.4,54.9 0,30.3 24.3,54.9 54.4,54.9 z"
     id="path4"
     style="fill:#ff4d00;fill-opacity:1" /></g>
</svg>
